<svg xmlns="http://www.w3.org/2000/svg" xmlns:xlink="http://www.w3.org/1999/xlink" id="svg2" version="1.1" width="134.963" height="114.075" xml:space="preserve"><defs id="defs6"><linearGradient x1="0" y1="0" x2="1" y2="0" gradientUnits="userSpaceOnUse" gradientTransform="matrix(101.039 0 0 -101.039 3.407 45.441)" spreadMethod="pad" id="linearGradient22"><stop offset="0" id="stop24" stop-opacity="1" stop-color="#4b0607"/><stop offset=".361" id="stop26" stop-opacity="1" stop-color="#e51b23"/><stop offset=".361" id="stop28" stop-opacity="1" stop-color="#e51b23"/><stop offset=".996" id="stop30" stop-opacity="1" stop-color="#4b0607"/><stop offset="1" id="stop32" stop-opacity="1" stop-color="#4b0607"/></linearGradient><linearGradient x1="0" y1="0" x2="1" y2="0" gradientUnits="userSpaceOnUse" gradientTransform="matrix(0 -11.5408 -11.5408 0 53.926 28.552)" spreadMethod="pad" id="linearGradient44"><stop offset="0" id="stop46" stop-opacity="1" stop-color="#3d3a3b"/><stop offset="1" id="stop48" stop-opacity="1" stop-color="#231f20"/></linearGradient><linearGradient x1="0" y1="0" x2="1" y2="0" gradientUnits="userSpaceOnUse" gradientTransform="scale(-132.41 132.41) rotate(-35 .593 1.612)" spreadMethod="pad" id="linearGradient60"><stop offset="0" id="stop62" stop-opacity="1" stop-color="#393536"/><stop offset=".188" id="stop64" stop-opacity="1" stop-color="#9e9c9c"/><stop offset=".406" id="stop66" stop-opacity="1" stop-color="#5a5758"/><stop offset=".542" id="stop68" stop-opacity="1" stop-color="#787677"/><stop offset=".718" id="stop70" stop-opacity="1" stop-color="#ededed"/><stop offset=".899" id="stop72" stop-opacity="1" stop-color="#5e5b5c"/><stop offset=".899" id="stop74" stop-opacity="1" stop-color="#5e5b5c"/><stop offset="1" id="stop76" stop-opacity="1" stop-color="#abaaaa"/></linearGradient><linearGradient xlink:href="#linearGradient22" id="linearGradient3218" gradientUnits="userSpaceOnUse" gradientTransform="matrix(101.039 0 0 -101.039 3.407 45.441)" spreadMethod="pad" x1="0" y1="0" x2="10.653" y2="0"/><linearGradient xlink:href="#linearGradient60" id="linearGradient3222" gradientUnits="userSpaceOnUse" gradientTransform="scale(-132.41 132.41) rotate(-35 .593 1.612)" spreadMethod="pad" x1="-9.566" y1=".866" x2="1" y2="0"/><linearGradient xlink:href="#linearGradient44" id="linearGradient3226" gradientUnits="userSpaceOnUse" gradientTransform="matrix(0 -11.5408 -11.5408 0 53.926 28.552)" spreadMethod="pad" x1="-15.85" y1="0" x2="-11.253" y2="0"/><clipPath clipPathUnits="userSpaceOnUse" id="clipPath18"><path d="M1044.46 31.816H34.066v845.192H1044.46V31.816z" id="path20"/></clipPath><clipPath clipPathUnits="userSpaceOnUse" id="clipPath40"><path d="M1044.46 31.816H34.066l-.003 140.625c60.765 30.137 478.675 218.907 1010.377.762l.02-141.387z" id="path42"/></clipPath><clipPath clipPathUnits="userSpaceOnUse" id="clipPath56"><path d="M1041.16 106.562c0-37.578-30.45-68.027-68.051-68.027H106.523c-37.597 0-68.046 30.45-68.046 68.027v699.36c0 37.574 30.449 68.039 68.046 68.039h866.586c37.601 0 68.051-30.465 68.051-68.039v-699.36zm-68.168 806.043H106.699C47.754 912.605 0 864.844 0 805.926V106.719C0 47.773 47.754 0 106.699 0h866.293c58.928 0 106.698 47.773 106.698 106.719v699.207c0 58.918-47.77 106.679-106.698 106.679z" id="path58"/></clipPath></defs><g id="g10" transform="matrix(1.25 0 0 -1.25 0 114.075)"><g id="g14" transform="scale(.1)"><g clip-path="url(#clipPath18)" id="g16"><path id="path34" d="M34.066 31.816h1010.39v845.191H34.066V31.817z" fill="url(#linearGradient3218)" fill-opacity="1" fill-rule="nonzero" stroke="none"/></g></g><g id="g36" transform="scale(.1)"><g clip-path="url(#clipPath40)" id="g38"><path id="path50" d="M1044.46 31.816H34.066l-.003 140.625c60.765 30.137 478.675 218.907 1010.377.762l.02-141.387" fill="url(#linearGradient3226)" fill-opacity="1" fill-rule="nonzero" stroke="none"/></g></g><g id="g52" transform="scale(.1)"><g clip-path="url(#clipPath56)" id="g54"><path id="path78" d="M1041.16 106.562c0-37.578-30.45-68.027-68.051-68.027H106.523c-37.597 0-68.046 30.45-68.046 68.027v699.36c0 37.574 30.449 68.039 68.046 68.039h866.586c37.601 0 68.051-30.465 68.051-68.039v-699.36zm-68.168 806.043H106.699C47.754 912.605 0 864.844 0 805.926V106.719C0 47.773 47.754 0 106.699 0h866.293c58.928 0 106.698 47.773 106.698 106.719v699.207c0 58.918-47.77 106.679-106.698 106.679" fill="url(#linearGradient3222)" fill-opacity="1" fill-rule="nonzero" stroke="none"/></g></g><g id="g3228" fill="#fff" fill-opacity="1" fill-rule="nonzero" stroke="none"><path d="M15.108 59.545h5.203c.848 0 1.158.342 1.158 1.07v.272c0 .9-.453 1.067-1.44 1.067h-4.921v-2.41zm-3.123 4.94h9.468c2.407 0 3.054-1.188 3.054-3.022v-.576c0-1.366-.307-2.172-1.743-2.504v-.03c.926-.173 1.697-.58 1.697-2.253v-3.192h-3.119v2.686c0 1.072-.317 1.42-1.285 1.42h-4.95v-4.106h-3.122v11.577" id="path88"/><path d="M44.897 55.523h4.316c1.34 0 1.862.38 1.862 1.83v2.774c0 1.44-.522 1.827-1.862 1.827h-4.316v-6.43zm-3.121 8.962h8.197c3.121 0 4.227-1.024 4.227-3.541V56.46c0-2.527-1.106-3.553-4.227-3.553h-8.197v11.577" id="path90"/><path d="M56.024 64.485h11.56v-2.362H59.15v-2.32h8.006V57.69h-8.006v-2.333h8.615v-2.449h-11.74v11.577" id="path92"/><path d="M83.461 64.485H88.3l4.545-8.51.026-.08v8.59h3.115V52.908H91.15L86.61 61.7l-.025-.385v-8.407h-3.125v11.577" id="path94"/><path d="M36.107 59.268h-6.486v.605c0 1.258.307 2.028 1.936 2.028H36.107v-2.633zm-5.216 5.217c-2.789 0-4.44-.694-4.44-3.649v-7.928h3.17v4.069h6.486v-4.069h3.094v11.577h-8.31" id="path96"/><path d="M78.514 57.475c0-1.448-.307-2.002-1.752-2.002h-2.48c-1.453 0-1.754.554-1.754 2.002v4.441h4.068c1.611 0 1.918-.751 1.918-1.996v-2.445zm-1.262 7.01H69.38V56.52c0-2.928 1.639-3.612 4.403-3.612h3.47c2.764 0 4.4.684 4.4 3.612v4.35c0 2.931-1.636 3.615-4.4 3.615" id="path98"/><path d="M25.855 44.807h3.507l.023-1.399c0-1.02-.217-1.676-.65-1.969-.435-.294-1.402-.441-2.903-.441-1.377 0-2.29.195-2.736.588-.448.393-.67 1.193-.67 2.4 0 1.541.088 2.516.267 2.922.222.494.559.828 1.01 1 .45.174 1.216.26 2.299.26 1.416 0 2.33-.135 2.74-.4.413-.268.62-.858.62-1.774h-1.528c-.028.461-.142.748-.342.86-.2.11-.703.168-1.508.168-.875 0-1.43-.096-1.666-.29-.236-.193-.353-.644-.353-1.357l-.006-.707.012-.904c0-.698.116-1.143.35-1.334.233-.192.773-.287 1.622-.287.825 0 1.348.082 1.572.244.224.16.336.543.336 1.144l.006.29h-2.002v.986" id="path100"/><path d="M33.153 44.559h2.17c.517 0 .86.082 1.03.246.169.162.254.49.254.982 0 .502-.074.828-.218.973-.147.146-.467.22-.961.22h-2.275V44.56zm-1.51-3.5v7.047h3.925c.977 0 1.649-.15 2.019-.45.37-.299.554-.842.554-1.625 0-.713-.092-1.2-.278-1.46-.183-.262-.562-.444-1.134-.544v-.047c.882-.046 1.324-.503 1.324-1.367V41.06h-1.51v1.287c0 .724-.404 1.088-1.215 1.088h-2.175v-2.375h-1.51" id="path102"/><path d="M45.008 43.398l-1.377 3.67-1.353-3.67h2.73zm.35-.986H41.92l-.496-1.353h-1.598l2.649 7.047h2.27l2.689-7.047h-1.568l-.508 1.353" id="path104"/><path d="M50.828 44.46h1.721c.686 0 1.12.071 1.305.21.183.139.277.469.277.988 0 .596-.076.965-.23 1.108-.155.142-.555.215-1.2.215h-1.873v-2.52zm-1.511-3.401v7.047h3.607c1.076 0 1.803-.166 2.178-.499.375-.332.564-.972.564-1.923 0-.942-.181-1.569-.539-1.88-.357-.308-1.08-.462-2.17-.462l-.35-.006h-1.779v-2.277h-1.511" id="path106"/><path d="M64.579 48.105V41.06h-1.512v3.047h-3.733v-3.047h-1.511v7.047h1.511V45.23h3.733v2.876h1.512" id="path108"/><path d="M67.174 41.059h1.512v7.046h-1.512V41.06z" id="path110"/><path d="M76.21 43.572h1.517v-.242c0-.98-.203-1.615-.608-1.902-.404-.287-1.298-.43-2.683-.43-1.572 0-2.54.227-2.9.68-.36.455-.542 1.67-.542 3.644 0 1.164.245 1.928.735 2.295s1.515.551 3.074.551c1.137 0 1.895-.15 2.276-.453.38-.3.572-.899.572-1.793l.006-.16h-1.518v.181c0 .461-.098.756-.293.885-.197.129-.644.193-1.346.193-.937 0-1.502-.101-1.69-.304-.187-.203-.28-.805-.28-1.807 0-1.35.082-2.148.252-2.394.17-.248.716-.373 1.642-.373.75 0 1.239.07 1.463.207.223.138.334.441.334.908l-.012.314" id="path112"/><path d="M85.784 46.05h-1.477a1.334 1.334 0 0 0-.012.145c-.035.397-.135.645-.299.746-.162.102-.546.153-1.154.153-.715 0-1.183-.059-1.402-.176-.22-.117-.33-.363-.33-.738 0-.444.09-.711.267-.8.18-.089.772-.16 1.776-.206 1.183-.059 1.95-.21 2.3-.45.348-.24.522-.742.522-1.501 0-.936-.203-1.541-.613-1.815-.408-.273-1.307-.41-2.701-.41-1.252 0-2.084.133-2.495.402-.41.268-.615.813-.615 1.631l-.006.258h1.471l.006-.15c0-.493.097-.793.29-.903.196-.109.727-.166 1.595-.166.675 0 1.107.065 1.295.192.187.127.28.422.28.883 0 .341-.072.566-.214.68-.143.11-.447.179-.918.202l-.836.047c-1.26.065-2.064.22-2.414.465-.35.244-.525.768-.525 1.574 0 .823.21 1.371.632 1.645.422.273 1.266.41 2.53.41 1.199 0 2.006-.127 2.422-.377.416-.252.625-.742.625-1.473v-.267" id="path114"/><path d="M66.043 14.373V9.826h4.416l3.084 3.256h-4.242v4.27l-3.258-2.979" id="path116"/><path d="M65.924 21h11.621V9.523l-3.56 3.565v4.615h-4.688L65.924 21" id="path118"/><path d="M35.828 17.922l-1.438-3.805h3.02l-1.582 3.805zm5.733-7.455h-2.63l-.804 1.94h-4.382l-.735-1.94h-2.585l3.952 9.797h2.832l4.352-9.797" id="path120"/><path d="M51.002 20.264h2.125v-9.797h-2.441v6.119L48.04 13.51h-.373l-2.642 3.076v-6.12H42.58v9.798h2.127l3.149-3.635 3.146 3.635" id="path122"/><path d="M57.121 12.262h1.598c2.455 0 3.19 1.666 3.19 3.103 0 1.68-.907 3.104-3.22 3.104h-1.568v-6.207zm1.883 8.002c3.58 0 5.418-2.227 5.418-4.912 0-2.815-1.783-4.885-5.691-4.885h-4.053v9.797h4.326" id="path124"/></g></g></svg>