<svg clip-rule="evenodd" fill-rule="evenodd" height="1569" image-rendering="optimizeQuality" shape-rendering="geometricPrecision" text-rendering="geometricPrecision" viewBox="-2.2737367544323206e-13 -13.050000000005355 10641.85 6695.989999999999" width="2500" xmlns="http://www.w3.org/2000/svg"><linearGradient id="a" gradientUnits="userSpaceOnUse" x1="3341.17" x2="7132.33" y1="5621.33" y2="1929.94"><stop offset="0" stop-color="#9d141c"/><stop offset=".6" stop-color="#c04215"/><stop offset="1" stop-color="#e4700d"/></linearGradient><path d="M4407.26 1265.72c86.3-35.08 120.81-76.94 224.63-79.63 37.58-41.04 159.83-55.99 176.92-99.94 12.6-32.41 5.46-35.74 38.95-54.78 39.81-22.63 105.14-30.4 155.66-28.09 81.94 3.75 143.91-21.07 160.51 17.41-25.66 11.37-42.78 6.71-63.14 25.2-22.81 20.72-7.39 9.15-35.39 20.51-23.18 9.4-5.34 5-22.32 14.71-7.81-21.53-31.57-45.32-61.66-45.34-4.89 0-92.17 15.84-95.11 16.79 15.71 84.2 83.69-31.77 127.85 96.01 1.01-1.21 1.88-5.04 2.25-4.16s1.71-3.17 2.21-4.08c12.06-21.71 2.16-12.76 12.55-19.27 13.38 18.65 23.79 57.97 39.42-1.37 28.43 27.87 83.63-.36 141.76-17.56 35.75-10.59 110.86-42.48 149.79-35.11-5.12 30.71-46.26 37.24-51.68 67.51 26.62-3 63.13-32.53 96.32-43.14 88.49-28.28 186.61-20.53 273.21-19.11 49.62.81 97.79-4.19 147.42.82 22.97 2.08 44.56 6.72 66.31 9.67 43.39 5.89 153.8 5.39 178.85 49.89.82 1.45 2.88 6.38 3.49 7.74l3.2 8.04c36.63-9.89 38.66-5.83 75.24 2.36 158.44 35.44 24.75 46.33 108.86 79.6 120.78 47.79 221.55 124.95 242.99 134.6 38.84 17.47 33.85-39.16 131.01 29.07l174.15 108.86c86.07 48.92 148.55 173.77 188.55 187.44-23.5-35.44-118.48-124.36-116.13-175.62 75.8-24.45 138.54 97.58 193.18 171.45l148.16 234.82c21.48 25.67 7.76-3.73 17.89 25.75 11.87 34.58 31.28 57.09 59.73 84.96 13.69 13.41 37.97 23.83 46.08 47.93 31.91 94.81 67.25 59.42 98.31 185.31 13.95 56.54 39.83 93.92 48.99 149.68 91.62 305.5 193.48 696.64 209.44 1076.07 1.76-1.69 4.24-3.92 9.12-7.19 3.14 33.55-1.35 53.85 5.99 88.22 7.69 36.02 7.52 48.18 2.04 86.14-12.3 85.37 19.04 22.79-25.9 165.3l-2.7 3.17c-15.32 126.02-44.36 247.15-91.23 359.31-78.23 242.62-100.7 348.58-235.28 557.87-41.22 64.11-6.82 30.45-75.12 119.08l-89.01 110.51c-42.25 58.63-17.19 43.85-87.2 112.4-30.25 29.62-68.68 64.38-90.97 110.19l-90.3 91.23c-18.8 15.72-24.16 12.81-24.72 41.12-29.35-10.08-8.02-10.04-34.23 16.08-34.63 34.49-99.38 60.95-127.51 105.55-28.6-4.05-27.19-11.49-54.98 16.71-1.12 1.14-4.09 4.64-5.24 5.78l-5.81 5.45c-1.6 1.39-9.81 7.37-12.86 9.89-10.1 8.35-15.24 14.76-23.1 23.13 32.32-2.35 31.54-15.19 58.95 1.7l22.14 11.13c-23.27 19.98-19.88 33.98-56.73 34.54 13.73-21.09 13.45-7.84 24.63-31.11-28.25 3.69-43.82 17.98-67.7 29.57-12.86 6.25 4.35 1.27-10.36 2.94-16.27 1.85 9.57-1.77-12.13-.53-20.95 1.2-20.92 5.83-34.5 23.54l-15.68 17.61c-31.59 26.01-64.89 44.27-97.89 63.11-34.06 19.44-51.16 23.51-83.29 49.2-.46 23.92 8.61 22.47-3.47 36.12l26.83 5.15c-44.66 29.24-25.1-17.76-80.2 29.96-14.66 12.7-14.04 10.72-17.5 34.18l88.26-30.85c-11.33 5.47-21.34 14.01-35.2 20.88-31.16 15.43-22.7 1.18-35.39 31.06-24.54-25.19-39.01 3.95-53.39 28.29 19.91-4.15 20.82-12.1 37.44-5.64-11.14 5.22-34.86 10.88-44.45 22.79-15.61 19.39-1 30.98-27.6 42.13l14.21-35.11c-45.51-1.96-12.18 14.69-43.45 30.45-29.46 14.85-22.94-4.02-51.31 26.24-18.26 19.48-13.24-2.5-14.82 25.2-1.56 27.35 6.43 19.52 21.9 34.27l11 9.81c9.81 8.23 3.66 2.19 12.08 14.27 31.89 1.94 37.39-1.68 48.11-16.09 15.95-21.41-11.55-.24 11.41-15.93 31.05-4.26 36.22 6.41 58.13 12.38 19.81-31.12-.31-10.12 31.51-23.69 13.33-5.69 22.33-12.92 41.45-16.9-1.09 1.1-2.5 1.44-2.98 3.56-2.78 12-22.44 20-30.95 27.1-.9.75-2.11 1.86-2.97 2.65-31 28.47-8.41 18.53-57.58 21.36-.69.04-2.43.04-3.58.39l.08 6.4c1.78 15.03 9.88 4.53-2.06 24.28-22.58 37.31-16.21.58-28.64 26.52 6.23 25.72 17.84 22.83 43.43 23.81l9.37 20.54c1.78-.64 9.23-10.89 10.3-11.42 15.65-7.77 19.65 4.75 53.87-19.9 26.15-18.83 30.67-31.39 67.28-43.8 31.45-10.65 82.35-12.22 93.77-45.15 9.09-26.18-5.22-7.08-.86-33.74.88-5.4 3.42-14.27 4.37-22.93l46.92-9.3c-4.12-2-11.56-7.42-17.05-13.37 3.12-3.13 5.75-5.19 8.06-7.49l10.1-10.51c-30.97 3.95-17.37 4.03-35.92 22.91l-15.55-27.26-11.64 24.64c-6 10.85-1.77 7.67-16.33 12.14.36-1.05 1.46-3.62 1.63-2.9l6.3-20.25c-40.34-1.04-15.08 14.1-35.44 32.61-31.95 29.04-27.36-15.12-30.38 48.05-40.04-.04-10.24 13.91-37.9 25.55-14.66-28.09 11.21 3.91-2.46-17.92-8.37-13.37 8.35 2.26-7.89-6.84-1.08-.6-3-1.18-4.09-1.68-1.36-.62-7.61-2.11-9.26-2.93.97-1.22 2.42-4.58 2.88-3.66l12.65-18.28c3.44-6.34 8.61-15.23 4.4-26.6-36.68-10.58-74.93 37.03-108.95 38.44 18.62-9.97 89.43-57.71 114.97-59.89 39.39-3.37-2.54 24.68 91.88-20.44 46.66-22.29 41.5-19.19 20.95-60.88 18.87-14.18 42.68-18.7 66.48-30.64 15.74-7.89 18.68-15.06 40.81-19.37-16.9 80.15-51.28 9.59-87.36 77.73 22.94 14.61-4.77 2.9 26.59 5.03 13.21.9 12.14 1.8 25.86 4.93-1.69-18.14-1.33-13.71-9.64-25.28l21.61-6.81c7.76 18.37-15.22 11.37 10.71 20.44 2.66-4.6 25.01-54.33 27.15-60.72 1.06 1.14 2.18 1.66 2.65 3.85.46 2.17 1.98 2.94 2.65 3.8 13.23 17.23 17.92 19.29 41.74 15.88 1.68-.24 6.22-1.06 7.68-1.28.95-.14 2.73-.41 3.55-.54.81-.11 2.84-.36 3.48-.45.64-.08 2.33-.1 3.46-.36 2.03-10.47-.58-31.44-8.08-43.5-20.24-32.55-7.88 13.34-18.91-17.62 6.11-5.6 32.06-20.62 46.16-22.47l11.09 24.78 43.42-24.29c-7.24 32.73-18.92 16.85-41.96 41.42 5.63 17.01-8.04 4.39 19.33 14.3-22.96 15.37-5.13 12.64-20.8 37.94l-11.09-22.96-18.67 29.23c-10.32 19.33-18.45 25.93-47.88 30.19-8.73-15.35-6.49-22.6-23.11-28.27-13.36 40.81 15.22 57.64-54.16 47.84l12.26 62.03c41.18-7.63 37.33-34.18 80.75-32.47 3.93-58.07 3.08-36.64 50.81-39.93 19.67-23.06 10.41-35.59 59.57-33.6-5.4 23.8-6.17 18.98-22.99 27.85l12.94 7.97c11.15 8.13 5.73-1.11 12.76 11.22l-40.28 11.8 6.37 13.94c.43 34.5-12.78-21.53-.64 7.8 36.4-10.38 36.07-16 70.86-1.6l10.46-30.86c42.56 3.06 47.62-12.38 64.47 7.65-36.51 11.01-92.51 34.54-135.04 50.96-41.12 15.88-95.91 42.18-139.44 51.74 3.18 30.47 11.81 5.13-.07 24.83-41.86 3.41.03-1.79-19.83-10.35-12.85-5.54-14.34-.89-22.87 6.53-27.89 24.25-7.06 13.44-49.65 22.33-34.35 7.18-63.62 30.62-99.97 43.96-73.33 26.91 15.73 14.55-94.79 38.48-82.86 17.94-48.96 27.68-91.41 49.74-.99.52-2.99 1.12-4.33 1.98 24.33-2.83 28.79-13.27 39.87-6.51-23.94 31.38-102.08 33.19-118.45 36.04-26.8 4.68-104.51 19.33-114.12 41.59 20.83 9.62 41.12-6.03 70.84-5.39-14.87 21.3-19.52 8.29-48.5 33l-18.23 17.93c92.05-14.12 85.91-36.83 104.15-53.91 13.54-12.68 20.44-10.28 34.44-19.36l7.96 4.84c23.27 15.67 28.59 20.34 84.87 4.56 61.51-17.25 36.44-13.05 56.04-28.51 8.37-6.61 10.05-7.15 23.42-7.24l-18.63 18.16 40.46 1.48-8.29 24.35c-2.6 16.26 10.81 16.33-14.18 24.75-33.83 11.39-49.76-2.52-77.82-7.58-33.76-6.07-41.42 5.82-65.56 14.38-27.05 9.59-130.41 18.45-201.66 58.73-13.76 7.78-38.9 22.36-53.48 29.85-39.36 20.23-58.36 17.9-63 39.64l3.09 32.74c12.8 23.1.84 2.65 11.01 12.76 12.32-11.47 14.38-3.99 8.12-18.55-10.94-25.4 3.58 18.94-13.78-10.79 21.21-7.62 26.89-16.1 44.48-27.7 5.02 8.35 7.67-2.91 2.53 19.53-10.2-14.6-2.46-9.06-21.8-5.94l-.91 41.32c29.6-7.16 44.44-23.96 62.29-40 32.89-29.57 25.86-19.66 66.52-21.55.57-15.68-2.36-17.51-9.49-27.17l43.85 2.66c-3.27 24.57-15.56 20.92-14.02 51.92 46.93-3.34 120.31-23.96 164.53-36.89 30.29-8.85 52.81-16.32 79.59-26.33 36.06-13.48 55.66-10.93 44.06-51.85l-23.42 23.85c-18.7-1.6-17.87-.43-30.38-12.23 7.6-12.6 51.37-25.12 68.97-33.4 43.67-20.56 46.19-12.88 66.78 16.86 20.07-3.07 24.54-7.58 42.67-12.81 30.8-8.89 32.5.81 49.14-2.46 73.79-14.46 50.95-39.79 96.95-44.01 62.09-5.69 32.35-22.94 71.49-29.69 16.59-2.86 19.47-5.09 32.89-11.98 20.61-10.59 37.65-19.1 58.03-30.32 51.91-28.56 46.97-13.64 50.87-37.01 69.09-13.33 62.73 3.97 141.57-47.63l349.21-232.51c6.36 7.65 10.27 14.26 22.44 14.84 12.87.62 11.9-4.22 25.58-9.7-8.98 28.74-16.01 13.61-23.02 35.42 13.51-2.61 148.91-130.48 161.26-143.59 39.52-41.93 83.18-58.22 167.21-148.88 33.64-36.28 58.57-23.86 95.73-59.52 24.84-23.84 52.59-51.11 75.03-80.19 34.23-44.35 21.7-56.88 79.39-76.8 26.8-9.26 53.92-64.32 68.31-90.71.55-1.31.69-5.02.81-4.2.11.8.58-3.28.75-4.05 5.13-25.01.17-8.33 33.8-40.54 19.94-19.09 30.32-25.79 45.34-54.46 29.05-55.5 48.03-83.07 111.58-76.56 41.96-114.77 87.03-143.28 123.68-242.02 22.53-60.7 25.51-26.08 47.77-74.1 26.06 5.09 8.34.76 27.84 18.31l52.18-167.07c6.15-14.95 20.05-32.87 28.67-48.66 14.27-26.12 4.17-90.48 6.3-129.4 1.52-27.99 10.82-28.62 20.17-49.01 10.56-23.04 8.64-41.64 15.45-62.41 6.18-18.82 15.89-25.03 25.29-46.6 6.38-14.62 11.45-36.95 20.92-51.25 30.73-46.38 63.2-47.15 50.78-93.01-14.26-52.62-37.43 2.67-7.39-102.27 39.29-137.24 34.24-49.5 61.97-90.19 4.35-46.23 9.84-89.42 16.94-135.48l14.2-223.9c-1.05-38.86 9.94-37.37 14.4-67.8 8.64-58.89-12.88-32.01 13.66-65.24 16.35-20.46 17.96-37.5 7.54-67.11-6.34-18-22.32-35.69-27.26-51.41l-13.94-141.65c5.57-29.69 22.08-26.88 26.58-56.82 3.57-23.77.05-49.88 9.3-69.54 17.91-38.06 15.71-14.72 12.11-63.35-1.97-26.55 4.65-52.72 3.33-71.18-3.17-44.25-14.35 9.21-5.28-66.52-9.34-11.27-26.27-18.98-30.61-35.99-5.93-23.29 5.08-29.93-5.25-61.81l-30.02-169.64c-2.1-37.29 1.72-26.62-13.31-53.46-19-33.92-16.71-77.1-30.23-103.23-13.19-33.59-13.2-19.46-15.83-62.83-1.53-25.21-8.04-45.96-15.66-66.45-26.23-70.51-17.21-76.08-50.86-117.61 7.84-24.07 15.75-16.92 7.72-38.33-4.02-10.7-15.11-24.39-19.91-41.36-10.39-36.76 5.88-21.27-21.81-99.97-6.36-18.07-12.72-27.01-18.39-42.51-6.09-16.65-6.25-33.68-13.3-48.29-7.08-14.67-16.84-20.85-25.73-35.21-8.84-14.29-13.47-25.55-19.43-41.69l-25.32.25c8.1-26.38 23.54-31.34 12.9-58.99-8.74-22.69-24.15-26.61-34.52-43.53-36.94-60.31-1.25-67.41-76.6-156.49-38.64-45.69 8.92-18.88-92.06-146.42-100.25-126.61-34.53-86.18-80.85-152.05-11.94-16.97-17.87-32.39-30.21-47.5-15.79-19.36-24.33-15.44-42.02-35.77-38-43.63-17.72-17.13-40.67-36.85-19.1-16.41-12.81-29.4-28.98-48.55-12.75-15.09-29.2-17.11-50.9-30.31-10.77-42.24 24.59-59.37-24.3-83.25-36.24-17.7-37.69-26.42-59.44-56.86-28.38-39.7-62.26-107.38-117.91-113.62l-3.91-8.72c-8.51-18.6-.69-13.67-15.02-23.76-10.87-7.65-25.13-6.15-41.58-7.19-15.51-51.3-34.25-54.75-65.56-85.16-32.56-31.63-131.18-103.15-172.39-126.94-26.86-15.51-23.32-23.05-42.76-35.51-18.97-12.16-31.3-15.39-49.75-27.39-34.76-22.59-58.92-36.44-91.88-57.85-18.29-11.88-30.56-20.7-50.53-27.72-19.78-6.96-46.24-5.29-61.8-14.79-33.62-20.56 17.83-26.71-187.72-117.35-32.97-14.54-287.4-124.93-306.77-148.5-18.37-22.36-4.84-24.62-43.46-33.86-23.08-5.52-41.22-7.99-63.66-14.18-36.64-10.09-80.29-21.71-119.94-29.22-63.51-12.03-72.43 2.58-124.67-31.2-33.83-21.88-78.26-20.99-122.56-26.65-89.26-11.41-116.58.99-145.1-3.15-29.91-14.95-107.95-18.43-146.83-11.64-69.22 12.08-128.93-22.85-222.25-7.15-41.31 6.94-34.25.96-65.66-8.06-32.89-9.44-456.8-16.37-489.97-13.8-85.28 6.61-144.06-19.88-225.16 1.89-31.32 8.41-24.41 23.71-46.91 41.62-49.71-2.15 3.32-15.51-49.79-14.93-31.88.35-22.21 12.42-50.12 15.13-187.72 18.21-97.22 24.4-149.82 34.3-37.67 7.09-71.24 1.04-131.94 46.88-9.47 2.09-88.59 22.83-93.14 25.2-16.86 8.78-13.29 17.49-41.08 20.13-24.42 2.32-77.17-14.57-148.44 18-33.58 15.35-37.3 42.84-73.7 47.03-39.07 4.49-60.07 16-95.91 21.98l-102.92 19.65c-10.38 5.06-19.08 16.99-31.02 24.25-35.57 21.61-63.25 5.47-102.44 79.28-40.06.96-60.14-9.37-96.42 9.96-37.54 20-32.71 32.32-39.19 77.68-54.9 17.73-114.04 33.24-140.38 71.47-26.23 1.38-63.85 24.7-83.76 47.74-58.93 68.17-36.48 43.47-82.69 54.87-46.57 11.48-45.61 53.44-68.09 65.46-38.22 20.45-36.22-10.78-74.4 43.15-14.83 20.95-11.04 2.16-28.54 26.69-48.35 67.76-49.08 19.2-140.28 98.08l-126.47 106.08c-14.17 12.95-10.48 7.51-18.72 23.65-11.5 3.07-2.95-1.76-15.89 8.53l-39.98 43.32c-39.24 43.07-23.48 11.89-54.67 61.65-25.07 39.99-69.45 53.72-119.78 113.22-35.61 42.11-70.12 76.7-102.54 124.88-13.47 20.02-8.92 14.02-26.43 28.26-14.47 11.77-66.75 73.25-58.46 108.71-52.86 1.29-32.18 29.72-78 88.25-44.69 57.09-100.47 148.54-142.28 201.55-28.49 36.12-47.03 55.63-67.71 106.37-34.69 33.15-91.12 124.78-105.25 175.04-10.65 37.86-19.26 73.73-28.61 109.61-4.85 18.63-11.89 34.54-19.67 53.38-13.08 31.66-7.36 26.83-11.96 60.53-4.51 33.04-12.64 15.14-17.64 50.49-4.34 30.71-2.21 28.7-14.07 55.87-27.48 62.93-.58 87.1-10.33 112.01-3.06 7.82-19.28 25.19-26.74 39.68-14.05 27.28-6.77 29.75-12.7 58.13-5.11 24.41-50.3 81.9-14.82 97.56-23.76 16.14-21.51 15.74-25.38 50.03-4.57 40.5-11.46 159.92 19.64 188.72l14.21 9.64c-55.11 76.5-41.82 84.92-37.51 170.34 1.72 33.95-8.95 39.41-9.13 71.89-.28 47.79 11.64 93.56 9.97 144.38-1.71 52.21-11.2 95.17-4.77 146.24 8.35 66.34 56.09 157.48 78.33 227.76 28.05 88.61 47.1 144.24 60.93 242.67 5.41 38.48 28.2 94.81 24.21 124.99-8.39 63.44-49.34 46.88-3.38 110.52 40.6 56.22 19.43 179.76 64.14 274.54 15.34 32.52-7.87 5.11 16.13 49.87l36.66 79.82c16.58 28.9 7.05 37.01 17.99 59.25 14.01 28.47 61.94 77.69 88.57 138.93 14.41 33.12 15.47 18.36 41.27 37.17-5.04 3.58 3.63-.78-11.14 6.32-6.01 2.88-3.34.73-11.19 4.78 1.02 56.74 15.35 43.16 23.7 63.18 6.7 16.08-10.7 7.52 7.12 27.65 10.24 11.56 10.35.44 24.37 20.08-8.88 7.51-17.85 5.12-29.8 3.61 2.11 35.83 88.6 151.56 117.66 168.66 31.96 18.82 7.68 14.94 34.16 38.43 17.99 15.95 23.15 17.07 40.28 37.25 17.94 21.13 52.47 62.82 63.69 86.24l23.89-24.21c6.08 36.62 7.3 36.64 28.77 54.61 25.04 20.95 20.61 35.66 35.48 47.59 24.36 19.52 36-1.9 53.46 30.07 9.15 16.73 13.1 43.57 23.61 59.67 15.41 23.62 64.75 53.58 86.56 79.48 24.34 28.91 53.67 74.17 76.49 95.4 17.53 16.32 13.7 4.8 27.16 16.65l7.54 9.13c5.57 6.11 5.1 5.37 11.57 10.89 15.5 13.24 40.03 52.41 79.01 87.6l84.21 81.72c16.34 15.7 21.12 33.59 36.26 47.34l112.44 98.23c18.73 17.21 6.27 5.9 27.97 16.63 28.83 14.26 16.79 26.97 36.31 46.68 10.32 10.42 34.23 22.15 47.72 35.48 29.46 29.08 45.58 65.13 79.8 86.67 37.24 23.44 85.23 77.44 138.22 116.86 61.62 45.84 79.13 112.12 193.92 138.71l200.85 49.3c41.35 11.61 44.95 2.02 81.8 5.77 17.43 12.38 14.15 18.54 30.6 30.78 10.4 7.74 28.7 13.79 40.58 20.88 35.75 21.32 68.88 10.33 96.41 25.35 14.15 7.72 18.75 20.57 30.69 30.32 17.85 14.57 22.32 9.34 42.68 18.51 31.23 14.07 8.87 31.03 76.99 50.37 85.19 24.18 130.98 18.04 221.52 14.32 75.33-3.09 114.18 9.33 134.23-25.72 6.94-12.15-16.77 2.2 5.77-7.18 26.2-10.9 14.29 23.46 12.62 36.45 35.48 6.52 139.71 5.37 173.84-3.67 78.66-20.84 164.69-14.19 239.66-48.62 59.65-27.39 53.42 3.98 141.64-52.9 33.33-21.49 43.48-15.88 85.37-16.51 7.47-28.91 39.55-56.76 75.97-55.48 8.78 14.38 3.46 24.27 11.09 37.35 36.54-47.25 13.84-33.28 17.63-80.54 35.51-17.57 69.14-39.26 102.19-58.38 25.64-14.85 33.3-3.29 49.26-28.37 10.19-16.01 21.08-38.61 29.61-53.59 28.56-50.13 56.05-49.81 78.46-82.53 13.54-19.77 12.88-32.62 30.6-52.55 39.1-43.99-.16-78.65 54.25-189.89 57.71-117.96-43.05-92.67-60.51-153.38-11.24-39.1 36.29-79.81-13.92-119.41-28.22-22.25-28.05-1.32-65.75-4.74-28.51-14.78-42.76-51.77-59.28-73.39-26.22-3.99-39.68.41-61.52-1.93l-32.32-22.67c-.52-.81-1.28-2.63-2.16-3.8-105.94 10-73.55-36.73-103.77-50.19-44.94-3.14-78.13-4.39-118.09-15.23-51.93-14.09-57.53-31.68-99.78.41-44.24-22.06-74.65-4.91-121.05-12.37-54.86-8.84-65.31-3.3-115.68 13.63-11.46 81.01-50.65 61.53-58.58 26.5-.42-1.86-1.46-7.75-1.82-9.35l-2.32-8.77c-56.4.56-114.01 12.58-126.97-43.6 12.56-16.54 18.44-17.69 39.52-26.44l36.9-12.15c11.59-4.16 7.43-1.66 12.87-5.78-21.53-16.3-19.93-7.52-45.72-4.76-23.25 2.49-36.46-2.2-60.31.39-12.4 17.25-21.02 41.26-33.75 59.4-54.52 7.04-56.28-25.22-74.26-57.94-11.92-21.71-54.78-39.99-85.81-46.84-7.09 43.48 3.85 49.96-38.1 61.71-76.77 21.51-90.87-14.41-136.96-59.48-25.92-25.35-46.92-13.92-76.83-28.26l-64.21-35.9c-20.12-11.19-42.17-29.17-61.89-43.43-78.79-57.01-153.56-123.71-219.08-191.28-27.76-28.63-68.6-92.93-94.95-110.35-49.37-32.65-34.82-47.51-65.89-83.78-14.76-17.23-20.67-13.92-31.99-23.61-16.25-13.9-6.27-12.54-16.43-32.98-9.65-19.4-13.72-15.05-28.41-27.47-17.84-15.08-27.25-39.28-47.75-58.79-47.24 1.46-44.53 1.95-79.19-35.98-21.3-23.31-37.87-44.71-56.77-70.79l-57.19-70.24c-20.31-30.46-10.76-67.62-51.11-83.66-2.41 34.09 1.75 52.22.92 80.3-37.35 26.53-49.01-3.79-86.44-43.14-27.7-29.12-47.5-53.03-77.89-82.79-97.07-95.03-91.42-105.09-98.42-223.7-11.68 11.64-3.7 6.01-9.29 15.71-13.67 23.73 6.48 9.3-16.99 18.23-17.85-11.98-6.09-1.82-14.6-26-9.74-27.66-31.75-47.77-33.08-78.95-142.24-257.89-287.11-719.97-217.55-1217.92 5.8-66.27 2.94-39.05 43.04-54.16 19.47-59.94 26.91-278.12 33.79-309.72 15.77-72.34 90.48-231.11 91.38-251.79 39.34-37.62 16.92-67.82 118.51-149.06 32.52-26.01 42.07-30 66.87-66.18 20.12-29.35 36.01-49.58 55.1-77.9 20.04-29.75 42.26-44.41 64.95-68.2 64.49-67.61 34.24-54.28 100.53-99.28 15.69-10.65 32.7-16.59 42.79-23.36l62.58-73.34 124.25-106.16 337.63-233.51c24.91-14.77 53.8-25.94 74.87-41.03l2.62-9.67c.39-1.27 2-7.37 2.61-8.94 6.86-17.72 11.54-18.84 47.31-35.32 26-11.97 48.14-21.92 76.2-34.12 44.18-19.21 130.43-34.6 159.58-58.32zm1252.93-223.62c27.18-4.76 17.9-10.59 45.71-17.91 14.62-3.85 35.53-5.66 54.34-7.93l3.73-17.85c-72.94-70.39-89.71-11.51-133.96-32.74-57.05-27.37-102.65-5.42-152.85-20.56-20-6.03-54.97-41.32-135.8-13.55-47.84 16.44-106.18-2.31-165.74-1.69l15.47 54.29c20.13-2.26 94.75-16.62 111.35-7.96-13.04 23-43.33 14.17-83.34 15.14-36.2.89-23.84 1.59-27.11 5.51-26.89 49.26 84.76 33.9 115.83 28.87 113.89-18.43 100.68-35.45 123.19 10.21 29.79 2.73 40.89.07 67.28-3.3 32.88-4.2 75.69 20.02 133.32 13.73 34.38-3.75 7.88-15.77 28.58-4.27zM3536.03 4998.61c-13.16-7.21-6.52-19.9-21.47-38.03-49.38-59.85-18.67 3.8-45.05-93.18-7.03-25.84-16.89-29.44-19.27-53.7l33.89-21.96c-5.37-29.01-6.05 2.72-21.93-60.65-5.91-23.59-21.11-32.79-48.79-31.89-28.98 40.75-19.16 65.88-52.53 76.28-4.59-9.94-10.93-25.07-15.15-40.82-8.78-32.76-.39-7.58 10.97-35.83-88.49-11.53-63.99 29.93-33.33 70.31 23 30.3 41.96 62.39 63.56 86.16 23.43 25.79 121.49 142.71 149.11 143.31zm3223.15 1046.2c.7-27.26 1.04-12.25 8.26-20.97l15.04-12.31c-21.22-12.27-67.68 44.25-81.86 55.72-21.2 17.13-72.88 49.63-109.73 33.01 10.65-10.71 50.81-20.65 66.49-26.43-8.48-6.12.63-2.93-13.41-5.43-8.26-1.47-11.41-1.11-19.92-.32-139.99 13.08-79.7 65.03-189.77 115.27 29.91 18.51 99.38-26.62 119.68-40.85 38.32-26.84 93.87-23.1 143.86-10.42-22.66 21.4-23.16 6.89-44.08 18.09 39.52 33.5 71.77 14.1 96.96-16.63-12.86-8.37-22.29 4.96-48.6-18.07 9.43-19.31 210.36-115.36 235.38-135.3-85.73-5.77-57.71 20.62-95.23 29.32-50.69 11.74-50.41 53.42-83.08 35.33zm-207.4-398.33l-5.52 29.2c18.76 4.29 13.62.8 19.41 1.02 18.99.72 8.54-3.26 17.11 2.1-13.02 25.05-7.09-16.91-35.7 18.19-26.51 32.51-12.92 8.9-38.98 28.16-6.9 5.1-10.87 10.19-12.41 20.95l1.45 19.17c4.78 20.84 7.94 26.47 36.88 40.59 12.8-14.86 15.78-17.71 3.96-32.78 1.38-.75 3.72-2.97 4.37-1.76.01.02 13.03-1.53 19.07-14.87l-26.87-3.72c53.11-15.27 56.35-3.89 111.35-34.05 32.78-17.98 61.63-40.43 92.4-57.68-24.97-12.62-15.58 9.6-28.3-15.46 6.35-12.58 4.26-6 11.61-12.92 4.06-3.81 1.45 2.94 11.34-9.54l-59.92 27.32c-8.61-16.5-24.6-36.53 9.06-37.22 31.04-.63 39.47 11.27 47.29-26.1l-102.56 33.83c-22.75 9.94-2.26-5.11-20.69 13.23-40.57 40.37-27.15 26.78-54.34 12.34z" fill="url(#a)"/><path d="M0 2773.08h704.28c86.8 0 670.06-12.18 698.67 7.33 15.58 16.75 9.75 52.73 9.72 83.4-.04 51.7 8.73 239.71-9.66 255.37-29.23 14.74-1255.71 6.14-1403.01 6.14v1061.4l353.93-.27.02-706.39 650.74-.9 408.62 707.29 407.3.37c-22.78-63.43-389.81-662.5-401.4-707.28 128.94-3.91 209.92-61.55 266.75-127.61 77.91-90.58 81.94-174.21 81.94-316.2 0-229.4 43.01-469.79-206.22-585.75-98.32-45.75-242.76-32.34-363.84-32.34H.01v355.45zm4312.19-2.12l1219.97 2.17c-14.79 23.59-143.8 128.57-175.6 156.82-27.5 24.42-56.8 50.28-86.38 74.26l-441.17 379.76c-143.09 116.12-296.48 262.16-438.04 377.1-16.05 13.03-28.65 25.81-44.96 38.22-17.95 13.67-31.95 19.39-33.81 51.18-6 103.01.44 228.86.39 334.5l1766.53.5.06-352.4-1220.38-1.14c12.43-21.09 142.38-127.16 170.84-153.05 28.34-25.79 56.18-48.06 86.65-74.13 29.29-25.05 58.87-52.77 89.45-76.97l131.56-112.41c152.7-134.25 349.57-293 488.32-421.24l175.64-151.5c40.03-32.64 76.62-54.4 78.36-89.25 4.74-95.77 3.63-237.54-1.2-333.7-141.43-6.28-295.78-.72-438.63-.72-197.76 0-1289.26-8.62-1327.4 4.09l-.2 347.9zm6329.66 1414.51V2418.23l-351.04.05-2.88 1218.69c-29.87-15.89-569.38-655.67-613.57-703.98-118.56-129.63-264.43-318.51-379.56-441.17-13.22-14.08-25.18-27.88-38.9-44.33-15.28-18.34-15.28-29.42-49.9-29.69-104.63-.78-226.14-4.37-329.23.98l-2.85 1764.18 355.19 2.57.09-1220.03c23.75 15.44 807.47 933.01 922.19 1065.35l135.55 153.64 354.91 1zm-4069.67-.07l1766.53 1.51-.22-354.73-643.4.26-766.36-.54-2.17-351.51 762.3-.57 650.51-2.36-.53-351.97-682.86.7-1083.84-.9.03 1060.09zm-3447.82.39l63.03-1.1c1.18-333.85 1.94-274.66-.16-649.9-.43-77.85 18.73-84.25 89.21-178.42 41.92-56.01 666.48-913.65 674.34-937.28l-436.42-.09-503.15 695.05c-16.69-17.71-96.7-125.82-104.41-146.18-26.28-23.09-77.65-104.63-101.55-136.51-34.88-46.52-66.15-88.62-98.26-134.65-25.16-36.05-188.49-254.78-193.33-275.79l-440.57-1.95c7.2 23.14 472.34 664.73 525.55 735.51 46.35 61.66 88.6 123.4 132.71 183.31 23.88 32.43 42.07 58.84 64.97 90.3 38.86 53.4 37.63 39.37 37.42 123.34-.51 204.3-9.01 430.5.13 632.24l290.48 2.11zm3448.21-1767.02l-1.11 354.43 1025.77.5 741.94-2.13-2.62-355.18-1763.98 2.36z" fill="#121210"/></svg>