<?xml version="1.0" encoding="UTF-8" standalone="no"?>
<!-- Created with Inkscape (http://www.inkscape.org/) -->

<svg
   width="96"
   height="96"
   viewBox="0 0 96 96"
   version="1.1"
   id="svg1"
   xml:space="preserve"
   inkscape:version="1.4.3 (0d15f75, 2025-12-25)"
   sodipodi:docname="anduinos-logo.svg"
   inkscape:export-batch-name="anduinos"
   inkscape:export-batch-path="..\anduinos-logo设计\256px-图标"
   xmlns:inkscape="http://www.inkscape.org/namespaces/inkscape"
   xmlns:sodipodi="http://sodipodi.sourceforge.net/DTD/sodipodi-0.dtd"
   xmlns="http://www.w3.org/2000/svg"
   xmlns:svg="http://www.w3.org/2000/svg"><sodipodi:namedview
     id="namedview1"
     pagecolor="#ffffff"
     bordercolor="#000000"
     borderopacity="0.25"
     inkscape:showpageshadow="2"
     inkscape:pageopacity="0.0"
     inkscape:pagecheckerboard="0"
     inkscape:deskcolor="#d1d1d1"
     inkscape:document-units="px"
     inkscape:zoom="0.056568542"
     inkscape:cx="23113.553"
     inkscape:cy="-6081.1183"
     inkscape:window-width="1920"
     inkscape:window-height="1010"
     inkscape:window-x="-6"
     inkscape:window-y="-6"
     inkscape:window-maximized="1"
     inkscape:current-layer="layer1"
     showgrid="false"><inkscape:grid
       id="grid18"
       units="px"
       originx="-1041.9617"
       originy="7486.5203"
       spacingx="1"
       spacingy="1"
       empcolor="#0099e5"
       empopacity="0.30196078"
       color="#0099e5"
       opacity="0.14901961"
       empspacing="5"
       enabled="true"
       visible="false" /></sodipodi:namedview><defs
     id="defs1"><filter
       inkscape:collect="always"
       style="color-interpolation-filters:sRGB"
       id="filter10"
       x="-0.20381072"
       y="-0.20381072"
       width="1.4076214"
       height="1.4076214"><feGaussianBlur
         inkscape:collect="always"
         stdDeviation="20.768054"
         id="feGaussianBlur10" /></filter><clipPath
       clipPathUnits="userSpaceOnUse"
       id="clipPath11"><path
         id="path12"
         style="opacity:1;fill:#a1c8f6;fill-opacity:1;stroke-width:0.318382"
         d="m -1950.9658,-2040.8375 c -6.2216,6.2217 -10.0594,14.8273 -10.0594,24.362 l -4e-4,175.714 c 0,9.5347 3.8379,18.14 10.0595,24.3617 l 45.4598,45.4598 c 6.2217,6.2216 14.8276,10.0601 24.3623,10.0601 l 175.7139,-4e-4 c 19.0694,0 34.4212,-15.3518 34.4212,-34.4212 l 7e-4,-175.7142 c 0,-9.5347 -3.8385,-18.1406 -10.0601,-24.3623 l -45.4598,-45.4598 v 0 c -6.2217,-6.2216 -14.8268,-10.0598 -24.3614,-10.0598 l -175.7143,7e-4 c -9.5347,0 -18.1401,3.8375 -24.3617,10.0591 z" /></clipPath><filter
       inkscape:collect="always"
       style="color-interpolation-filters:sRGB"
       id="filter12"
       x="-0.20381072"
       y="-0.20381072"
       width="1.4076214"
       height="1.4076214"><feGaussianBlur
         inkscape:collect="always"
         stdDeviation="20.768054"
         id="feGaussianBlur12" /></filter><clipPath
       clipPathUnits="userSpaceOnUse"
       id="clipPath13"><path
         id="path14"
         style="opacity:1;fill:#5baefd;fill-opacity:1;stroke-width:0.318382"
         d="m -1828.6872,-1918.5589 c -6.2216,6.2216 -10.0595,14.8273 -10.0596,24.3619 l -3e-4,175.714 c -10e-5,9.5346 3.8378,18.14 10.0594,24.3616 l 45.46,45.46 c 6.2217,6.2217 14.8274,10.0599 24.3621,10.06 l 175.7141,-4e-4 c 19.0694,10e-5 34.4212,-15.3517 34.4211,-34.4211 l 6e-4,-175.7143 c 0,-9.5348 -3.8382,-18.1405 -10.0599,-24.3622 l -45.46,-45.46 v 0 c -6.2216,-6.2216 -14.8267,-10.0598 -24.3613,-10.0597 l -175.7143,7e-4 c -9.5346,0 -18.14,3.8376 -24.3616,10.0592 z" /></clipPath><filter
       inkscape:collect="always"
       style="color-interpolation-filters:sRGB"
       id="filter15"
       x="-0.11588829"
       y="-0.20094674"
       width="1.2317766"
       height="1.4018935"><feGaussianBlur
         inkscape:collect="always"
         stdDeviation="19.543553"
         id="feGaussianBlur15" /></filter><clipPath
       clipPathUnits="userSpaceOnUse"
       id="clipPath15"><rect
         style="opacity:1;mix-blend-mode:normal;fill:#357cf4;fill-opacity:1;stroke-width:0.318384"
         id="rect16"
         width="244.55695"
         height="244.55695"
         x="-1716.4684"
         y="-1806.3401"
         rx="34.421211"
         ry="34.421211"
         transform="matrix(0.90167268,0.43241921,-0.90167268,0.43241921,0,0)" /></clipPath></defs><g
     inkscape:label="图层 1"
     inkscape:groupmode="layer"
     id="layer1"
     transform="translate(-1041.9617,7486.5203)"><g
       id="毛玻璃立体logo-96px"
       transform="translate(0,-3889.2488)"><rect
         style="opacity:0.5;fill:none;fill-opacity:1;stroke-width:0.0443884"
         id="rect345"
         width="96"
         height="96"
         x="1041.9617"
         y="-3597.2715" /><g
         id="g403"
         transform="matrix(0.09388761,0,0,0.09388761,1935.0128,-3902.2941)"><path
           id="path394"
           style="fill:#3e8df5;fill-opacity:1;stroke-width:0.562304"
           d="m -9000.6667,3738.1401 c -22.4395,0 -44.8794,4.1222 -62.0737,12.3682 l -316.8737,151.9648 c -17.1943,8.246 -25.7917,19.0074 -25.7917,29.7688 v 78.6308 c 0,10.7614 8.5974,21.524 25.7917,29.7698 l 316.8737,151.9638 c 34.3886,16.4918 89.7578,16.4918 124.1464,0 l 316.8747,-151.9638 c 17.1944,-8.2458 25.7918,-19.0084 25.7918,-29.7698 v -78.6308 0 c 0,-10.7614 -8.5964,-21.5228 -25.7907,-29.7688 l -316.8747,-151.9648 c -17.1943,-8.246 -39.6332,-12.3682 -62.0727,-12.3682 z" /><rect
           style="mix-blend-mode:normal;fill:#357cf4;fill-opacity:1;stroke-width:0.636766"
           id="rect395"
           width="489.11389"
           height="489.11389"
           x="-688.85687"
           y="9293.3311"
           rx="68.842422"
           ry="68.842422"
           transform="matrix(0.90167269,0.4324192,-0.90167269,0.4324192,0,0)" /><path
           id="path395"
           style="opacity:0.15;fill:#000000;fill-opacity:1;stroke-width:0.281152;filter:url(#filter15)"
           d="m 81.034847,-1620.3812 c -11.219755,0 -22.439709,2.0617 -31.036865,6.1846 l -158.436842,75.982 c -8.59715,4.1229 -12.89584,9.5036 -12.89585,14.8843 v 39.3155 c -1e-5,5.3808 4.29868,10.7618 12.89585,14.8848 l 158.436842,75.982 c 17.194311,8.246 44.878898,8.246 62.073218,0 l 158.43735,-75.982 c 8.59717,-4.123 12.89587,-9.504 12.89586,-14.8848 v -39.3155 h -5.2e-4 c -10e-6,-5.3807 -4.29819,-10.7614 -12.89534,-14.8843 l -158.43735,-75.982 c -8.59716,-4.1229 -19.816598,-6.1846 -31.036353,-6.1846 z"
           clip-path="url(#clipPath15)"
           transform="matrix(2,0,0,2,-9162.7364,6767.4001)" /><g
           id="g398"
           transform="matrix(7.4111404,0,0,7.4111404,57704.565,-26179.747)"
           style="opacity:0.5"><path
             id="path396"
             style="opacity:0.05;mix-blend-mode:overlay;fill:#ffffff;stroke-width:4.4802"
             d="m -8990.2612,4051.8873 a 4.1144576,1.9733122 0 0 0 -3.9051,2.4836 4.1144576,1.9733122 0 0 1 4.4784,-1.4479 4.1015191,1.9671069 0 0 1 3.4721,1.4429 4.1015191,1.9671069 0 0 0 -3.4721,-2.4639 4.1144576,1.9733122 0 0 0 -0.5733,-0.015 z m -10.4098,2.1025 a 17.790501,8.5324037 0 0 0 -7.9201,0.8873 l 0.9447,0.813 a 17.790501,8.5324037 0 0 1 6.9734,-0.679 c 1.6604,0 3.2542,0.1034 4.781,0.3103 a 5.7705914,2.7676015 0 0 0 7.7372,2.1502 c 2.557,1.2081 4.3638,2.7782 5.0431,4.5406 h 0.2618 c -0.2787,-2.1296 -2.1825,-4.0423 -5.116,-5.4696 a 4.1144576,1.9733122 0 0 1 -5.25,-0.328 5.7705914,2.7676015 0 0 1 -2.6761,-1.9126 c -1.5262,-0.2067 -3.1193,-0.3105 -4.779,-0.3105 z m -9.9129,1.4399 h -0.01 a 17.919886,8.5944573 0 0 0 -7.3748,4.9829 5.757653,2.761396 0 0 1 0.5322,0.2364 17.919886,8.5944573 0 0 1 6.8426,-4.1979 h 0.01 l 2.1389,1.7207 a 12.000501,5.7554939 0 0 1 0.8695,-0.3216 z m -11.0366,5.1567 v 0 a 4.1144576,1.9733122 0 0 0 -3.9529,2.4839 4.1144576,1.9733122 0 0 1 3.9529,-1.4626 v 0 a 4.1176921,1.9748635 0 0 1 3.9963,1.4643 4.1176921,1.9748635 0 0 0 -3.9963,-2.4853 z m 33.1411,2.4836 h -0.2253 a 12.006971,5.7585966 0 0 1 -17.0271,4.7161 l -2.8593,2.4575 a 17.855194,8.5634304 0 0 0 0.9461,0.2079 l 1.9132,-1.6441 a 12.006971,5.7585966 0 0 0 17.0271,-4.7161 v 0 l 5.5964,0.045 a 17.790501,8.5324037 0 0 0 0.2647,-1.0193 z m -42.9865,0 a 30.80999,14.776609 0 0 0 30.7996,15.2873 30.80999,14.776609 0 0 0 30.7836,-15.2873 30.80999,14.776609 0 0 1 -30.7836,14.266 30.80999,14.776609 0 0 1 -30.7996,-14.266 z m 18.8253,0 a 12.000501,5.7554939 0 0 0 4.1939,4.9013 l 0.8709,-0.699 a 12.000501,5.7554939 0 0 1 -5.0651,-4.2023 z m -3.2829,0 a 5.757653,2.761396 0 0 1 -2.0417,1.6381 17.919886,8.5944573 0 0 0 0.5339,0.7843 5.757653,2.761396 0 0 0 1.5078,-2.4224 z m 25.452,6.4375 a 5.757653,2.761396 0 0 0 -2.74,0.4102 4.122417,1.9771296 0 0 0 -0.9655,1.8521 4.122417,1.9771296 0 0 1 3.4735,-1.4516 h -0.01 a 4.1209269,1.976415 0 0 1 4.5894,1.4442 4.1209269,1.976415 0 0 0 -1.8253,-2.1908 17.790501,8.5324037 0 0 1 -0.2086,0.1107 5.757653,2.761396 0 0 0 -2.3168,-0.1778 z" /><path
             fill="#ffffff"
             d="m -9000.6663,4047.7845 a 30.810075,14.77665 0 1 0 0,29.5533 30.810075,14.77665 0 0 0 0,-29.5533 m 10.9784,4.1174 a 4.1015191,1.9671069 0 0 1 3.0598,2.9444 4.1144576,1.9733122 0 1 1 -3.0598,-2.9444 m -10.9849,2.088 q 2.4906,0 4.7807,0.3103 a 5.7705914,2.7676015 0 0 0 7.7373,2.1502 c 3.0405,1.4365 5.0202,3.385 5.3048,5.56 l -5.8546,0.04 a 12.01344,5.7616992 0 0 0 -17.0273,-4.713 l -2.8593,-2.4604 a 17.790501,8.5324037 0 0 1 7.9249,-0.8874 z m -9.911,1.4397 3.0083,2.4201 a 12.000501,5.7554939 0 0 0 0,9.426 l -3.0083,2.4139 a 17.919886,8.5944573 0 0 1 -7.3814,-4.9767 5.757653,2.761396 0 0 0 0,-4.2973 17.919886,8.5944573 0 0 1 7.375,-4.9829 z m -11.0366,5.1567 a 4.1176921,1.9748635 0 1 1 0,3.9497 4.1144576,1.9733122 0 0 1 0,-3.9466 z m 32.9158,2.4822 5.8611,0.047 a 17.790501,8.5324037 0 0 1 -5.3113,5.5537 5.757653,2.761396 0 0 0 -7.7373,2.1502 17.855194,8.5634304 0 0 1 -12.6991,-0.574 l 2.8593,-2.4573 a 12.006971,5.7585966 0 0 0 17.0273,-4.7161 z m -2.0055,6.2364 a 4.1209269,1.976415 0 1 1 1.0092,3.9218 4.122417,1.9771296 0 0 1 -1.0027,-3.9249 z"
             id="path397"
             style="opacity:0.025;mix-blend-mode:overlay;fill:#000000;stroke-width:4.4802" /><path
             id="path398"
             style="opacity:0.05;mix-blend-mode:overlay;fill:#000000;stroke-width:4.4802"
             d="m -9000.6663,4047.7847 a 30.80999,14.776609 0 0 0 -30.7996,15.287 30.80999,14.776609 0 0 1 30.7996,-14.266 30.80999,14.776609 0 0 1 30.7836,14.266 30.80999,14.776609 0 0 0 -30.7836,-15.287 z m 14.4485,6.5845 a 4.1015191,1.9671069 0 0 1 -0.4102,0.4771 4.1144576,1.9733122 0 0 1 -7.5383,-0.4754 4.1144576,1.9733122 0 0 0 0.9504,1.8421 5.7705914,2.7676015 0 0 0 5.0611,0.2373 c 0.064,0.03 0.1264,0.06 0.1889,0.091 a 4.1144576,1.9733122 0 0 0 1.3379,-0.6736 4.1015191,1.9671069 0 0 0 0.4102,-1.4981 z m -21.4289,1.3209 a 17.790501,8.5324037 0 0 0 -0.9444,0.2083 l 2.8593,2.4602 a 12.01344,5.7616992 0 0 1 17.0271,4.7131 v 0 h 0.2253 l 5.6295,-0.038 c -0.045,-0.3459 -0.1333,-0.686 -0.2618,-1.0193 l -5.593,0.038 a 12.01344,5.7616992 0 0 0 -17.0271,-4.7131 l -1.9146,-1.6475 z m -0.7983,2.4812 a 12.000501,5.7554939 0 0 0 -4.1956,4.902 12.000501,5.7554939 0 0 1 5.0651,-4.2026 z m -8.9879,2.4806 a 17.919886,8.5944573 0 0 0 -0.5323,0.785 5.757653,2.761396 0 0 1 2.0417,1.6378 5.757653,2.761396 0 0 0 -1.5094,-2.4228 z m -0.1913,2.4198 a 4.1176921,1.9748635 0 0 1 -3.9963,1.4642 4.1144576,1.9733122 0 0 1 -3.9529,-1.4626 4.1144576,1.9733122 0 0 0 3.9529,2.484 4.1176921,1.9748635 0 0 0 3.9963,-2.4856 z m 34.5159,1.0627 a 17.790501,8.5324037 0 0 1 -5.0465,4.5346 5.757653,2.761396 0 0 0 -7.7372,2.1503 17.855194,8.5634304 0 0 1 -11.753,-0.3661 l -0.9461,0.8131 a 17.855194,8.5634304 0 0 0 12.6991,0.574 5.757653,2.761396 0 0 1 2.6805,-1.918 4.122417,1.9771296 0 0 1 2.508,-0.6205 h -0.01 a 4.1209269,1.976415 0 0 1 2.7641,0.2745 17.790501,8.5324037 0 0 0 5.1025,-5.4429 z m -34.323,1.3627 a 5.757653,2.761396 0 0 1 -0.5339,0.237 17.919886,8.5944573 0 0 0 7.3813,4.9765 l 3.0084,-2.4137 a 12.000501,5.7554939 0 0 1 -0.8709,-0.3223 l -2.1372,1.7151 a 17.919886,8.5944573 0 0 1 -6.8473,-4.1926 z m 31.3105,6.273 a 4.1209269,1.976415 0 0 1 -3.5801,1.4565 4.122417,1.9771296 0 0 1 -4.4761,-1.4522 4.122417,1.9771296 0 0 0 4.4761,2.4736 4.1209269,1.976415 0 0 0 3.5801,-2.4779 z" /></g><path
           id="path399"
           style="fill:#5baefd;fill-opacity:1;stroke-width:0.562304"
           d="m -9000.6667,3526.6377 c -22.4395,0 -44.8794,4.1234 -62.0737,12.3692 l -316.8737,151.964 c -17.1943,8.2458 -25.7917,19.0072 -25.7917,29.7686 v 78.631 c 0,10.7616 8.5974,21.5236 25.7917,29.7696 l 316.8737,151.964 c 34.3886,16.492 89.7578,16.492 124.1464,0 l 316.8747,-151.964 c 17.1944,-8.246 25.7918,-19.008 25.7918,-29.7696 v -78.631 0 c 0,-10.7614 -8.5964,-21.5228 -25.7907,-29.7686 l -316.8747,-151.964 c -17.1943,-8.2458 -39.6332,-12.3692 -62.0727,-12.3692 z" /><rect
           style="mix-blend-mode:normal;fill:#4da2fd;fill-opacity:1;stroke-width:0.636766"
           id="rect399"
           width="489.11389"
           height="489.11389"
           x="-933.414"
           y="9048.7744"
           rx="68.842422"
           ry="68.842422"
           transform="matrix(0.90167269,0.4324192,-0.90167269,0.4324192,0,0)" /><path
           id="path400"
           style="opacity:0.15;fill:#000000;fill-opacity:1;stroke-width:0.281152;filter:url(#filter15)"
           d="m 81.034847,-1620.3812 c -11.219755,0 -22.439709,2.0617 -31.036865,6.1846 l -158.436842,75.982 c -8.59715,4.1229 -12.89584,9.5036 -12.89585,14.8843 v 39.3155 c -1e-5,5.3808 4.29868,10.7618 12.89585,14.8848 l 158.436842,75.982 c 17.194311,8.246 44.878898,8.246 62.073218,0 l 158.43735,-75.982 c 8.59717,-4.123 12.89587,-9.504 12.89586,-14.8848 v -39.3155 h -5.2e-4 c -10e-6,-5.3807 -4.29819,-10.7614 -12.89534,-14.8843 l -158.43735,-75.982 c -8.59716,-4.1229 -19.816598,-6.1846 -31.036353,-6.1846 z"
           clip-path="url(#clipPath15)"
           transform="matrix(2,0,0,2,-9162.7364,6558.0292)" /><path
           id="path401"
           style="fill:#a1c8f6;fill-opacity:1;stroke-width:0.562304"
           d="m -9000.6667,3315.1354 c -22.4395,0 -44.8794,4.1234 -62.0737,12.3694 l -316.8737,151.9637 c -17.1943,8.246 -25.7917,19.0074 -25.7917,29.7688 v 78.6308 c 0,10.7614 8.5974,21.5238 25.7917,29.7698 l 316.8737,151.9638 c 34.3886,16.492 89.7578,16.492 124.1464,0 l 316.8747,-151.9638 c 17.1944,-8.246 25.7918,-19.0084 25.7918,-29.7698 v -78.6308 0 c 0,-10.7614 -8.5964,-21.5228 -25.7907,-29.7688 l -316.8747,-151.9637 c -17.1943,-8.246 -39.6332,-12.3694 -62.0727,-12.3694 z" /><rect
           style="opacity:0.45;fill:#ffffff;fill-opacity:1;stroke-width:0.636766"
           id="rect401"
           width="489.11389"
           height="489.11389"
           x="-1177.9708"
           y="8804.2178"
           rx="68.842422"
           ry="68.842422"
           transform="matrix(0.90167269,0.4324192,-0.90167269,0.4324192,0,0)" /><rect
           style="opacity:0.35;mix-blend-mode:normal;fill:#4da2fd;fill-opacity:1;stroke-width:0.318383;filter:url(#filter10)"
           id="rect402"
           width="244.55695"
           height="244.55695"
           x="-1838.7469"
           y="-1928.6185"
           rx="34.421211"
           ry="34.421211"
           transform="matrix(1.8033454,0.86483842,-1.8033454,0.86483842,-9162.7364,6767.4001)"
           clip-path="url(#clipPath11)" /><rect
           style="opacity:0.5;mix-blend-mode:normal;fill:#357cf4;fill-opacity:1;stroke-width:0.318383;filter:url(#filter12)"
           id="rect403"
           width="244.55695"
           height="244.55695"
           x="-1716.4684"
           y="-1806.3401"
           rx="34.421211"
           ry="34.421211"
           transform="matrix(1.8033454,0.86483842,-1.8033454,0.86483842,-9162.7364,6767.4001)"
           clip-path="url(#clipPath13)" /></g></g></g></svg>
