<?xml version="1.0" encoding="iso-8859-1"?>
<!-- Generator: Adobe Illustrator 16.0.0, SVG Export Plug-In . SVG Version: 6.00 Build 0)  -->
<!DOCTYPE svg PUBLIC "-//W3C//DTD SVG 1.1//EN" "http://www.w3.org/Graphics/SVG/1.1/DTD/svg11.dtd">
<svg version="1.1" id="Capa_1" xmlns="http://www.w3.org/2000/svg" xmlns:xlink="http://www.w3.org/1999/xlink" x="0px" y="0px"
	 width="459px" height="459px" viewBox="0 0 459 459" style="enable-background:new 0 0 459 459;" xml:space="preserve">
<g>
	<g id="bug-report">
		<path d="M433.5,127.5h-71.4c-12.75-20.4-28.05-38.25-45.899-51L357,35.7L321.3,0l-56.1,56.1C255,53.55,242.25,51,229.5,51
			s-25.5,2.55-35.7,5.1L137.7,0L102,35.7l40.8,40.8c-17.85,12.75-33.15,30.6-45.9,51H25.5v51h53.55c-2.55,7.65-2.55,17.85-2.55,25.5
			v25.5h-51v51h51V306c0,7.65,0,17.85,2.55,25.5H25.5v51h71.4c25.5,45.9,76.5,76.5,132.6,76.5c56.1,0,107.1-30.6,132.6-76.5h71.4
			v-51h-53.55c2.55-7.65,2.55-17.85,2.55-25.5v-25.5h51v-51h-51V204c0-7.65,0-17.85-2.55-25.5h53.55V127.5z M280.5,331.5h-102v-51
			h102V331.5z M280.5,229.5h-102v-51h102V229.5z"/>
	</g>
</g>
<g>
</g>
<g>
</g>
<g>
</g>
<g>
</g>
<g>
</g>
<g>
</g>
<g>
</g>
<g>
</g>
<g>
</g>
<g>
</g>
<g>
</g>
<g>
</g>
<g>
</g>
<g>
</g>
<g>
</g>
</svg>
