<?xml version="1.0" encoding="UTF-8"?>
<svg height="334.61" viewBox="0,0,511.287,334.607" width="511.29" xmlns="http://www.w3.org/2000/svg">
 <metadata/>
 <path d="m228.385 354.792c-4.37098-1.51404-7.71812-3.85393-9.42123-6.58706-1.57512-2.51685-1.7031-3.6278-1.7031-14.6488 0-11.6994.0302-11.896 1.89015-13.5674 2.33316-2.10393 5.65077-2.21207 8.39739-.26446 2.00829 1.42556 2.02798 1.51404 2.02798 10.8146 0 5.14184.35834 9.92975.7974 10.7163.6025 1.01265 1.62436 1.33707 4.19378 1.33707 5.20776 0 5.78859-1.19942 5.78859-11.9943 0-8.51403.0799-8.95644 1.89015-10.618 1.19119-1.07164 2.76632-1.70084 4.27253-1.70084 1.49637 0 3.08135.62823 4.27254 1.70084 1.85077 1.67134 1.89014 1.91713 1.89014 13.1741 0 12.8792-.50896 14.8455-4.70569 17.9915-5.57201 4.22751-13.5855 5.70223-19.5906 3.61796zm-123.057-.99298c-2.26424-1.65168-3.10103-8.02244-2.36269-17.9915.71669-9.64464 2.35285-12.7809 8.08238-15.4354 3.4948-1.61236 4.65646-1.76966 13.2901-1.76966 8.76164 0 9.55904.11109 11.1243 1.5632 1.20103 1.08146 1.73264 2.38904 1.73264 4.24718 0 4.46348-.96082 4.93538-10.0414 4.93538-10.5337 0-11.1243 1.18961-.74917 1.49438 9.372.27528 10.7306.97528 10.7306 5.40729 0 1.91713-.5444 3.24438-1.83109 4.47331-1.71295 1.64185-2.36268 1.75982-10.3368 1.94662l-8.55491.19466-.45974 3.8146c-.25301 2.0941-.7157 4.53229-1.02383 5.40729-1.01398 2.85111-6.68445 3.84409-9.64765 1.68117zm65.0724-.0415c-3.97719-1.67134-8.52537-6.23313-9.56889-9.60531-.87322-2.83146-1.14197-20.1544-.34752-22.0224.64187-1.50421 4.32176-3.14606 7.0487-3.14606 1.38807 0 2.91398.6705 4.07564 1.78931 1.73264 1.66151 1.89015 2.43821 2.2544 11.1095.48533 11.7977.6773 11.9944 11.2228 11.9944 8.71242.0193 10.3368.84157 10.3368 5.14184 0 4.90589-1.457 5.57442-12.601 5.80055-7.80672.15632-9.84453-.0266-12.4041-1.10113zm107.305-.004c-2.04767-2.03511-1.49638-4.90589 1.95905-10.1264 1.88031-2.84128 3.22901-5.76122 3.22901-6.97048-.002-1.20927-1.3487-4.08988-3.22901-6.88201-3.79014-5.64325-4.07564-8.00279-1.20102-10.0281 4.2233-2.98876 8.88961-1.25843 12.9948 4.82723 1.56529 2.31038 3.23886 4.08988 3.72124 3.9424.48632-.14354 1.97876-1.64185 3.32746-3.32302 4.81397-6.04633 5.99532-6.87217 9.80515-6.87217 2.65804 0 3.67202.31854 4.28238 1.33707 1.51606 2.54635.83679 5.75139-2.28393 10.9129-1.69326 2.7823-3.08134 5.57443-3.08134 6.21347 0 .63806 1.38808 3.42134 3.08134 6.18397 4.92227 8.03229 4.14454 12.0927-2.29378 12.0927-3.74092 0-6.51709-1.70084-9.29324-5.69239-1.40777-2.01545-2.67772-3.81461-2.82539-3.98174-.14865-.17402-2.59895 1.92696-5.44403 4.67976-4.78444 4.62078-5.41449 4.99437-8.31863 4.99437-2.06736 0-3.57358-.43357-4.42021-1.26825zm64.1864.77571c-4.01657-1.32725-5.31605-6.49858-2.31346-9.21207 1.3487-1.20926 2.56942-1.38623 9.66734-1.38623 5.22744 0 7.96423-.24775 7.6492-.69311-.26777-.39031-3.96735-.69312-8.45646-.69312-7.70827 0-8.04299-.0631-9.57873-1.82864-1.99845-2.2809-2.04767-5.83005-.12503-7.9733 1.3487-1.49438 2.21502-1.67134 10.2383-2.00561 10.2383-.43652 9.62796-1.25843-1.20104-1.52388-7.12744-.17205-7.70827-.29592-9.06682-1.92696-1.90984-2.31039-1.17149-5.8792 1.5456-7.48172 1.60466-.94775 3.92797-1.16994 12.4041-1.16994 11.5181 0 13.8808.66657 17.3264 4.72892 1.46685 1.76966 1.6342 2.95927 1.73264 12.4859.0994 9.13339-.0848 10.9129-1.39792 13.4691-2.42175 4.66011-5.8575 5.77106-17.6217 5.70224-5.26683-.0301-10.1399-.22711-10.7306-.43652zm61.233-.48667c-3.24869-1.29774-5.36527-3.57864-7.79687-8.38621-2.62849-5.20082-2.96321-12.6826-.79543-17.7949 1.72279-4.04071 6.3005-7.7275 10.9274-8.76964 4.49896-1.02247 15.259-.97331 19.0984.0822 8.05283 2.17275 12.601 9.83144 11.8134 19.9578-.63104 8.2879-4.13471 13.0758-10.829 14.8455-4.89273 1.30758-19.1968 1.33707-22.4455.045zm17.7202-11.7977c2.50051-2.2514 2.73678-8.62216.3928-10.7163-2.83523-2.54635-9.53936-2.67415-12.601-.22416-2.09688 1.70084-1.89014 8.93677.32684 11.0112 2.46114 2.35955 9.16527 2.30056 11.8134-.097zm36.1295 11.4045c-1.95907-1.94662-1.19119-5.67274 2.21502-10.7163 3.50466-5.19101 3.5145-7.33426.0673-12.4859-4.29222-6.41009-4.5088-9.79211-.73736-11.3062 4.686-1.91713 8.4663-.25267 12.3057 5.41712 1.54559 2.29073 3.12072 4.16853 3.50465 4.16853.37902 0 1.83109-1.44523 3.21917-3.20505 4.71553-5.98734 6.33988-7.18678 9.72641-7.18678 6.39895 0 7.25542 4.28651 2.42175 12.191-1.69326 2.7823-3.08134 5.57443-3.08134 6.21347 0 .63806 1.38808 3.42134 3.08134 6.18397 4.92227 8.03228 4.14455 12.0927-2.29377 12.0927-3.8 0-6.6943-1.79916-9.70672-6.03651l-2.79586-3.9424-5.16838 4.98454c-4.75491 4.59128-5.42434 4.98454-8.25957 4.98454-2.09688 0-3.53418-.43848-4.46941-1.36657zm-278.6-90.6458c-4.31191-6.05616-6.59584-11.6011-8.91915-21.7275-.25991-1.13061-1.64405-2.52668-3.70155-3.73594-1.81139-1.0618-6.14299-3.82443-9.63781-6.13482-5.32589-3.52948-6.34972-4.51263-6.34972-6.14465 0-2.76263 2.09689-2.55617 11.2228 1.10112l7.60983 3.03791 1.07305-5.86936c.97658-5.33847.95-6.2528-.30124-10.1264-1.8114-5.64324-2.4316-19.2696-1.16166-25.66 1.92954-9.83143 5.94611-17.8932 13.5855-27.2331 11.9119-14.5505 27.6632-25.8567 50.1087-36.0814 34.5543-15.7303 74.6216-25.2668 122.072-28.9044 22.1502-1.74016 79.4454-.83862 94.5076 1.48455 2.13625.32935 2.50051.67345 2.50051 2.35955 0 1.16011-.50208 2.14326-1.22073 2.38904-.66943.23104-5.95594.42177-11.715.42374-29.3367.008-68.518 5.01403-97.8547 12.4859-25.7927 6.56741-49.1242 15.2387-71.176 26.3482-7.79688 3.92275-22.7409 12.3876-22.7409 12.7809 0 .11011 5.10932-1.62219 11.3212-3.84409 30.4196-10.8146 67.7304-17.6966 109.274-20.1544 23.43-1.3764 82.4972.5545 84.9584 2.77246.37409.33723.56507 1.34692.42331 2.2514-.25695 1.63203-.28943 1.64186-14.4715 2.13343-60.0517 2.0646-108.29 12.3876-153.575 32.7387-29.6321 13.2724-52.0776 27.528-70.1916 44.6347-7.32434 6.87217-18.3108 20.0561-18.3108 22.0224 0 .39917 3.89844 1.38624 8.6632 2.19242 31.4041 5.32864 65.4662 2.08426 90.2744-8.60251 18.7046-8.04211 30.8134-18.3848 39.1813-33.4269 2.35284-4.21768 4.21346-5.43679 6.28082-4.07022 1.33885.88188 1.3487 1.17978.13092 6.7247-4.54817 20.8426-16.5388 38.2443-33.2745 48.469-20.8704 12.6826-48.7305 17.5983-75.803 13.2724-11.4197-1.81881-25.4974-5.48593-34.5543-8.98593l-7.13729-2.77246-.72357 1.71067c-.39772.94185-1.2798 4.42414-1.95907 7.73733-1.63419 7.98313-1.5259 7.75701-3.67201 7.75701-1.38808 0-2.47098-.84943-4.21347-3.29353zm33.1761-39.4241c-1.92952-.70197-.91751-3.85392 2.53989-7.90448 1.92954-2.2514 4.1544-4.41431 4.95182-4.79774 1.56528-.75505 12.2072-.96347 14.1761-.27724 2.22487.7698 1.36839 3.99156-2.23471 8.35671l-3.45544 4.1882-5.89687.4493c-6.60569.50238-8.69273.50042-10.1399-.0102z" fill="#4d4d4d" stroke-width=".984" transform="matrix(1.29 0 0 1.26 -128.79 -114.52)"/>
</svg>
