<svg xmlns="http://www.w3.org/2000/svg" xmlns:xlink="http://www.w3.org/1999/xlink" height="800" width="1200" viewBox="-20.488155 -21.451775 177.56401 128.71065" style="background-color: #333333"><defs><radialGradient id="a" gradientTransform="scale(-1 -.4407) rotate(45 67.4738 -149.8345)" r="84.7754" fy="17.0986" fx="57.5693" cy="17.0986" cx="57.5693"><stop offset="0%" stop-color="#F68C11"/><stop offset="95%" stop-color="#B4131D"/><stop offset="100%" stop-color="#B4131D"/></radialGradient><radialGradient id="b" gradientTransform="scale(-.31217 -1) rotate(45 -4.5247 -69.0895)" r="97.7756" fy="4.3395" fx="13.6166" cy="4.3395" cx="13.6166"><stop offset="0%" stop-color="#F68C11"/><stop offset="95%" stop-color="#B4131D"/><stop offset="100%" stop-color="#B4131D"/></radialGradient><radialGradient id="c" gradientTransform="scale(-.16042 -1) rotate(45 -12.317 -117.1778)" r="317.3047" fy="9.444" fx="13.4196" cy="9.444" cx="13.4196"><stop offset="0%" stop-color="#F68C11"/><stop offset="95%" stop-color="#B4131D"/><stop offset="100%" stop-color="#B4131D"/></radialGradient><radialGradient id="d" gradientTransform="scale(-.99999 -.37533) rotate(45 116.1939 -401.815)" r="222.7877" fy="26.2689" fx="157.381" cy="26.2689" cx="157.381"><stop offset="0%" stop-color="#F68C11"/><stop offset="95%" stop-color="#B4131D"/><stop offset="100%" stop-color="#B4131D"/></radialGradient><radialGradient id="e" gradientTransform="scale(-1 -.43376) rotate(45 51.2399 -203.7413)" r="116.0239" fy="12.842" fx="80.9204" cy="12.842" cx="80.9204"><stop offset="0%" stop-color="#F68C11"/><stop offset="95%" stop-color="#B4131D"/><stop offset="100%" stop-color="#B4131D"/></radialGradient><radialGradient id="f" gradientTransform="matrix(-.1354 -.7071 .1354 -.7071 26.422 20.499)" r="333.7398" fy="2.2575" fx="23.5398" cy="2.2575" cx="23.5398"><stop offset="0%" stop-color="#F68C11"/><stop offset="95%" stop-color="#B4131D"/><stop offset="100%" stop-color="#B4131D"/></radialGradient><radialGradient id="g" gradientTransform="scale(-1 -.31572) rotate(45 102.7247 -238.2601)" r="133.3981" fy="20.4204" fx="89.5242" cy="20.4204" cx="89.5242"><stop offset="0%" stop-color="#F68C11"/><stop offset="95%" stop-color="#B4131D"/><stop offset="100%" stop-color="#B4131D"/></radialGradient><radialGradient id="h" gradientTransform="matrix(-.27472 -.7071 .27472 -.7071 -65.377 723.8945)" r="563.6561" fy="408.7994" fx="36.8132" cy="408.7994" cx="36.8132"><stop offset="0%" stop-color="#F68C11"/><stop offset="95%" stop-color="#B4131D"/><stop offset="100%" stop-color="#B4131D"/></radialGradient><radialGradient id="i" gradientTransform="scale(-1 -.92714) rotate(45 1084.0432 -276.678)" r="638.4199" fy="432.0489" fx="107.5719" cy="432.0489" cx="107.5719"><stop offset="0%" stop-color="#F68C11"/><stop offset="95%" stop-color="#B4131D"/><stop offset="100%" stop-color="#B4131D"/></radialGradient><radialGradient id="j" gradientTransform="scale(-1 -.42638) rotate(45 544.97 -254.9914)" r="444.508" fy="134.9548" fx="68.019" cy="134.9548" cx="68.019"><stop offset="0%" stop-color="#F68C11"/><stop offset="95%" stop-color="#B4131D"/><stop offset="100%" stop-color="#B4131D"/></radialGradient><radialGradient id="k" gradientTransform="scale(-1 -.80474) rotate(45 260.894 -106.9443)" r="143.7921" fy="96.3739" fx="39.4548" cy="96.3739" cx="39.4548"><stop offset="0%" stop-color="#F68C11"/><stop offset="95%" stop-color="#B4131D"/><stop offset="100%" stop-color="#B4131D"/></radialGradient><radialGradient id="l" gradientTransform="scale(-.99999 -.8792) rotate(45 427.8672 -104.0616)" r="264.5956" fy="165.8362" fx="38.3852" cy="165.8362" cx="38.3852"><stop offset="0%" stop-color="#F68C11"/><stop offset="95%" stop-color="#B4131D"/><stop offset="100%" stop-color="#B4131D"/></radialGradient><radialGradient id="m" gradientTransform="scale(-.69016 -1) rotate(45 83.8138 -9.9283)" r="44.6713" fy="35.0291" fx="3.3585" cy="35.0291" cx="3.3585"><stop offset="0%" stop-color="#F68C11"/><stop offset="95%" stop-color="#B4131D"/><stop offset="100%" stop-color="#B4131D"/></radialGradient><radialGradient id="n" gradientTransform="scale(-.79446 -.99999) rotate(45 265.0413 -23.2465)" r="144.1458" fy="110.2396" fx="8.5259" cy="110.2396" cx="8.5259"><stop offset="0%" stop-color="#F68C11"/><stop offset="95%" stop-color="#B4131D"/><stop offset="100%" stop-color="#B4131D"/></radialGradient><radialGradient id="o" gradientTransform="scale(-.69664 -1) rotate(45 471.6414 -114.2377)" r="250.8324" fy="198.8647" fx="38.8582" cy="198.8647" cx="38.8582"><stop offset="0%" stop-color="#F68C11"/><stop offset="95%" stop-color="#B4131D"/><stop offset="100%" stop-color="#B4131D"/></radialGradient><radialGradient id="p" r="638.9672" fy="504.9774" fx="137.1238" cy="504.9774" cx="137.1238"><stop offset="0%" stop-color="#F68C11"/><stop offset="95%" stop-color="#B4131D"/><stop offset="100%" stop-color="#B4131D"/></radialGradient><radialGradient id="q" gradientTransform="scale(-.69429 -1) rotate(45 522.143 -99.9987)" r="293.2164" fy="219.3745" fx="33.947" cy="219.3745" cx="33.947"><stop offset="0%" stop-color="#F68C11"/><stop offset="95%" stop-color="#B4131D"/><stop offset="100%" stop-color="#B4131D"/></radialGradient><radialGradient id="r" gradientTransform="scale(-.63387 -1) rotate(45 318.1547 -61.5815)" r="191.5877" fy="134.1517" fx="19.7918" cy="134.1517" cx="19.7918"><stop offset="0%" stop-color="#F68C11"/><stop offset="95%" stop-color="#B4131D"/><stop offset="100%" stop-color="#B4131D"/></radialGradient><radialGradient id="s" gradientTransform="matrix(-.60524 -.7071 .60524 -.7071 -77.7198 276.4892)" r="208.7929" fy="157.4314" fx="10.9421" cy="157.4314" cx="10.9421"><stop offset="0%" stop-color="#F68C11"/><stop offset="95%" stop-color="#B4131D"/><stop offset="100%" stop-color="#B4131D"/></radialGradient><radialGradient id="t" gradientTransform="matrix(-.53806 -.7071 .53806 -.7071 -5.1747 43.295)" r="29.915" fy="23.3689" fx="4.8107" cy="23.3689" cx="4.8107"><stop offset="0%" stop-color="#F68C11"/><stop offset="95%" stop-color="#B4131D"/><stop offset="100%" stop-color="#B4131D"/></radialGradient><radialGradient id="u" gradientTransform="scale(-.97161 -1) rotate(45 2.0599 -2.0546)" r=".9924" fy=".8583" fx=".8388" cy=".8583" cx=".8388"><stop offset="0%" stop-color="#F68C11"/><stop offset="95%" stop-color="#B4131D"/><stop offset="100%" stop-color="#B4131D"/></radialGradient><radialGradient id="v" r=".0081" fy=".5" fx=".5" cy=".5" cx=".5"><stop offset="0%" stop-color="#F68C11"/><stop offset="95%" stop-color="#B4131D"/><stop offset="100%" stop-color="#B4131D"/></radialGradient><radialGradient id="w" gradientTransform="scale(-.69074 -1) rotate(45 219.446 -20.785)" r="117.9491" fy="91.5498" fx="7.0347" cy="91.5498" cx="7.0347"><stop offset="0%" stop-color="#F68C11"/><stop offset="95%" stop-color="#B4131D"/><stop offset="100%" stop-color="#B4131D"/></radialGradient><radialGradient id="x" gradientTransform="matrix(-.26905 -.7071 .26905 -.7071 -49.0288 537.2837)" r="403.0439" fy="304.0361" fx="25.8263" cy="304.0361" cx="25.8263"><stop offset="0%" stop-color="#F68C11"/><stop offset="95%" stop-color="#B4131D"/><stop offset="100%" stop-color="#B4131D"/></radialGradient><radialGradient id="y" gradientTransform="scale(-.94343 -1) rotate(45 854.0252 -254.8922)" r="466.0499" fy="355.0219" fx="102.5063" cy="355.0219" cx="102.5063"><stop offset="0%" stop-color="#F68C11"/><stop offset="95%" stop-color="#B4131D"/><stop offset="100%" stop-color="#B4131D"/></radialGradient><radialGradient id="z" gradientTransform="scale(-.90098 -1) rotate(45 1173.9466 -250.4106)" r="638.8271" fy="488.5026" fx="98.3204" cy="488.5026" cx="98.3204"><stop offset="0%" stop-color="#F68C11"/><stop offset="95%" stop-color="#B4131D"/><stop offset="100%" stop-color="#B4131D"/></radialGradient><radialGradient id="A" gradientTransform="scale(-1 -.68718) rotate(45 319.7738 -139.8932)" r="203.8973" fy="107.8963" fx="47.7733" cy="107.8963" cx="47.7733"><stop offset="0%" stop-color="#F68C11"/><stop offset="95%" stop-color="#B4131D"/><stop offset="100%" stop-color="#B4131D"/></radialGradient><radialGradient id="B" gradientTransform="scale(-.52338 -1) rotate(45 299.5113 -46.2923)" r="167.3948" fy="126.5466" fx="13.1757" cy="126.5466" cx="13.1757"><stop offset="0%" stop-color="#F68C11"/><stop offset="95%" stop-color="#B4131D"/><stop offset="100%" stop-color="#B4131D"/></radialGradient><radialGradient id="C" gradientTransform="scale(-.59896 -1) rotate(45 598.7757 -108.2082)" r="336.2872" fy="252.6775" fx="33.5795" cy="252.6775" cx="33.5795"><stop offset="0%" stop-color="#F68C11"/><stop offset="95%" stop-color="#B4131D"/><stop offset="100%" stop-color="#B4131D"/></radialGradient><radialGradient id="D" gradientTransform="scale(-.39961 -.99999) rotate(45 1004.9036 -145.7875)" r="576.4218" fy="426.9701" fx="34.4836" cy="426.9701" cx="34.4836"><stop offset="0%" stop-color="#F68C11"/><stop offset="95%" stop-color="#B4131D"/><stop offset="100%" stop-color="#B4131D"/></radialGradient><radialGradient id="E" gradientTransform="matrix(-.7071 -.2557 .7071 -.2557 -98.2043 70.3943)" r="289.6728" fy="62.5034" fx="-31.637" cy="62.5034" cx="-31.637"><stop offset="0%" stop-color="#F68C11"/><stop offset="95%" stop-color="#B4131D"/><stop offset="100%" stop-color="#B4131D"/></radialGradient><radialGradient id="F" gradientTransform="scale(-.92168 -1) rotate(45 193.5839 -13.4914)" r="106.0542" fy="80.2794" fx="5.3605" cy="80.2794" cx="5.3605"><stop offset="0%" stop-color="#F68C11"/><stop offset="95%" stop-color="#B4131D"/><stop offset="100%" stop-color="#B4131D"/></radialGradient><radialGradient id="G" gradientTransform="scale(-.5422 -1) rotate(45 231.156 -53.9794)" r="125.6416" fy="98.4972" fx="15.7217" cy="98.4972" cx="15.7217"><stop offset="0%" stop-color="#F68C11"/><stop offset="95%" stop-color="#B4131D"/><stop offset="100%" stop-color="#B4131D"/></radialGradient><radialGradient gradientUnits="userSpaceOnUse" r="128.2799" fy="25.901" fx="87.2548" cy="25.901" cx="87.2548" gradientTransform="scale(.66385 1.50635)" id="H" xlink:href="#a"/><radialGradient gradientUnits="userSpaceOnUse" r="152.4072" fy="6.8203" fx="21.2635" cy="6.8203" cx="21.2635" gradientTransform="scale(1.7898 .55872)" id="I" xlink:href="#b"/><radialGradient gradientUnits="userSpaceOnUse" r="212.6327" fy="6.5181" fx="8.9962" cy="6.5181" cx="8.9962" gradientTransform="scale(2.49673 .40052)" id="J" xlink:href="#c"/><radialGradient gradientUnits="userSpaceOnUse" r="139.0051" fy="16.4665" fx="98.2551" cy="16.4665" cx="98.2551" gradientTransform="scale(.61265 1.63225)" id="K" xlink:href="#d"/><radialGradient gradientUnits="userSpaceOnUse" r="129.31" fy="14.3637" fx="90.1885" cy="14.3637" cx="90.1885" gradientTransform="scale(.6586 1.51837)" id="L" xlink:href="#e"/><radialGradient gradientUnits="userSpaceOnUse" r="194.6099" fy="1.3956" fx="13.7366" cy="1.3956" cx="13.7366" gradientTransform="scale(2.2853 .43758)" id="M" xlink:href="#f"/><radialGradient gradientUnits="userSpaceOnUse" r="151.5445" fy="23.2666" fx="101.8978" cy="23.2666" cx="101.8978" gradientTransform="scale(.56189 1.77972)" id="N" xlink:href="#g"/><radialGradient gradientUnits="userSpaceOnUse" r="136.6094" fy="99.1552" fx="8.9316" cy="99.1552" cx="8.9316" gradientTransform="scale(1.60435 .6233)" id="O" xlink:href="#h"/><radialGradient gradientUnits="userSpaceOnUse" r="77.2114" fy="52.2894" fx="13.0479" cy="52.2894" cx="13.0479" gradientTransform="scale(.84097 1.1891)" id="P" xlink:href="#i"/><radialGradient gradientUnits="userSpaceOnUse" r="130.3898" fy="39.6575" fx="20.0973" cy="39.6575" cx="20.0973" gradientTransform="scale(.65298 1.53144)" id="Q" xlink:href="#j"/><radialGradient gradientUnits="userSpaceOnUse" r="94.9402" fy="63.7113" fx="26.0734" cy="63.7113" cx="26.0734" gradientTransform="scale(.89707 1.11474)" id="R" xlink:href="#k"/><radialGradient gradientUnits="userSpaceOnUse" r="90.8387" fy="56.9708" fx="13.281" cy="56.9708" cx="13.281" gradientTransform="scale(.93766 1.06649)" id="S" xlink:href="#l"/><radialGradient gradientUnits="userSpaceOnUse" r="102.5117" fy="80.5062" fx="7.8029" cy="80.5062" cx="7.8029" gradientTransform="scale(1.20372 .83076)" id="T" xlink:href="#m"/><radialGradient gradientUnits="userSpaceOnUse" r="95.5171" fy="73.0684" fx="5.7569" cy="73.0684" cx="5.7569" gradientTransform="scale(1.12192 .89133)" id="U" xlink:href="#n"/><radialGradient gradientUnits="userSpaceOnUse" r="102.0478" fy="80.9424" fx="15.8538" cy="80.9424" cx="15.8538" gradientTransform="scale(1.1981 .83465)" id="V" xlink:href="#o"/><radialGradient gradientUnits="userSpaceOnUse" gradientTransform="scale(1.17176 .85342)" r="54.5752" fy="43.312" fx="11.7278" cy="43.312" cx="11.7278" id="W" xlink:href="#p"/><radialGradient gradientUnits="userSpaceOnUse" r="102.2042" fy="76.5847" fx="11.9369" cy="76.5847" cx="11.9369" gradientTransform="scale(1.20014 .83324)" id="X" xlink:href="#q"/><radialGradient gradientUnits="userSpaceOnUse" r="106.9953" fy="74.9819" fx="11.0869" cy="74.9819" cx="11.0869" gradientTransform="scale(1.25603 .79616)" id="Y" xlink:href="#r"/><radialGradient gradientUnits="userSpaceOnUse" r="92.0774" fy="69.4285" fx="4.8649" cy="69.4285" cx="4.8649" gradientTransform="scale(1.08088 .92517)" id="Z" xlink:href="#s"/><radialGradient gradientUnits="userSpaceOnUse" r="97.6254" fy="76.3625" fx="15.7543" cy="76.3625" cx="15.7543" gradientTransform="scale(1.14638 .87231)" id="aa" xlink:href="#t"/><radialGradient gradientUnits="userSpaceOnUse" r="86.3922" fy="74.7459" fx="73.1316" cy="74.7459" cx="73.1316" gradientTransform="scale(1.0145 .9857)" id="ab" xlink:href="#u"/><radialGradient gradientUnits="userSpaceOnUse" r="0" fy=".1653" fx=".1065" cy=".1653" cx=".1065" id="ac" xlink:href="#v"/><radialGradient gradientUnits="userSpaceOnUse" r="102.4762" fy="79.6766" fx="6.1428" cy="79.6766" cx="6.1428" gradientTransform="scale(1.20321 .83111)" id="ad" xlink:href="#w"/><radialGradient gradientUnits="userSpaceOnUse" r="137.9893" fy="104.2602" fx="8.9206" cy="104.2602" cx="8.9206" gradientTransform="scale(1.62113 .61685)" id="ae" xlink:href="#x"/><radialGradient gradientUnits="userSpaceOnUse" r="87.6472" fy="66.7737" fx="19.3521" cy="66.7737" cx="19.3521" gradientTransform="scale(1.02955 .9713)" id="af" xlink:href="#y"/><radialGradient gradientUnits="userSpaceOnUse" r="89.3476" fy="68.3514" fx="13.7938" cy="68.3514" cx="13.7938" gradientTransform="scale(1.0581 .9451)" id="ag" xlink:href="#z"/><radialGradient gradientUnits="userSpaceOnUse" r="102.7017" fy="54.4298" fx="24.1952" cy="54.4298" cx="24.1952" gradientTransform="scale(.82896 1.20633)" id="ah" xlink:href="#A"/><radialGradient gradientUnits="userSpaceOnUse" r="117.7143" fy="89.1281" fx="9.3028" cy="89.1281" cx="9.3028" gradientTransform="scale(1.38226 .72345)" id="ai" xlink:href="#B"/><radialGradient gradientUnits="userSpaceOnUse" r="109.9488" fy="82.7281" fx="10.9874" cy="82.7281" cx="10.9874" gradientTransform="scale(1.29212 .77392)" id="aj" xlink:href="#C"/><radialGradient gradientUnits="userSpaceOnUse" r="134.7848" fy="99.9457" fx="8.1271" cy="99.9457" cx="8.1271" gradientTransform="scale(1.58189 .63216)" id="ak" xlink:href="#D"/><radialGradient gradientUnits="userSpaceOnUse" r="141.6237" fy="30.5983" fx="-15.4217" cy="30.5983" cx="-15.4217" gradientTransform="scale(.60135 1.66292)" id="al" xlink:href="#E"/><radialGradient gradientUnits="userSpaceOnUse" r="88.7192" fy="67.175" fx="4.5366" cy="67.175" cx="4.5366" gradientTransform="scale(1.04162 .96004)" id="am" xlink:href="#F"/><radialGradient gradientUnits="userSpaceOnUse" r="115.6433" fy="90.8185" fx="14.4769" cy="90.8185" cx="14.4769" gradientTransform="scale(1.35807 .73634)" id="an" xlink:href="#G"/></defs><g fill="none"><path d="M.2203.2933C.274.224.4516.3987.4755.2813.5193.1613.5505.0093.751.048.875.0787.6703.3667.6787.5173.6875.68.7224 1.088.8016 1.02c.175-.1467.0547-.4053.2181-.5533.1272-.088.0152.624.0391.9293.024.3053.0907.9827-.0285.9213-.1606-.0493-.4459-.032-.461-.1413-.0125-.1467-.0365-.2827-.0313-.4187C.5547 1.3547.464.9933.1817.692.0588.56.061.4253.2203.2933" fill="url(#H)" transform="matrix(1 0 0 -1 40.2437 51.169)"/><path d="M2.1948.6653c-.349-.0706-.6792-.1866-.987-.3613C1.0599.22.9199.224.785.3133.6631.3947.4084.7147.4193.5893.414.488.4104.4053.4041.3053.4021.1947.1917.5413.1172.4547.0245.3227.0797.2413.1697.196.388.0853.6036-.0213.8703.06c.349.1053.6365.152.9381.392.1.072.8733.2413 1.0317.4053C2.9328.964 2.6615.852 2.5776.816c-.126-.0547-.25-.1253-.3828-.1507" fill="url(#I)" transform="matrix(1 0 0 -1 60.1104 15.969)"/><path d="M.8661.0893c.209.0947.4156.08.6292.0374.0464-.0094.0968.008.1755.0173.1068.02-.603.1747-.991.196C.4144.3547-.0772.3293.0212.3.2636.2227.4541.1573.648.1027.7177.0827.8073.0613.866.0893" fill="url(#J)" transform="matrix(1 0 0 -1 75.7104 14.769)"/><path d="M.0885.1453C.1208.148.162.0933.185.152c.0782.2147.149.4133.2296.6373.036.1067-.1676.208-.2561.3174-.047.0706-.083.0266-.073-.0307C.0913 1 .0782.916.1058.848.196.6253.2073.4147.0573.2133.0521.2053-.002.1453.0885.1453" fill="url(#K)" transform="matrix(1 0 0 -1 37.977 39.0357)"/><path d="M.049.7947C-.062.7987.0546.368.0583.0853.0541-.008.5927.768.6563 1.1307c.1421.4306.0609.2746-.0006.6-.0312.1306-.5578-.0974-.5354-.2187.0494-.1627.1448-.248.249-.324h.001C.4713 1.0827.1369.8093.0489.7947" fill="url(#L)" transform="matrix(1 0 0 -1 38.777 33.969)"/><path d="M.6896.184C.4926.1267.2786.264.0312.112-.0188.0707.1771.0333.2427.0347.54.0373.8787.056 1.1745.076c.0578.004.1119.0707.1682.108.0396.028-.0224.0627-.0339.0933C1.2787.3133.9729.268.6896.184" fill="url(#M)" transform="matrix(1 0 0 -1 66.777 12.769)"/><path d="M.4937.1693c0-.0106 0-.064.0631-.0426.1057.052.2057.1333.1896.26C.7.7507.6167 1.2933.5584 1.656c-.021.2867-.1568.5587-.2667.4707C.2355 2.076.061 2.036.123 1.98c.085-.0693.1474-.1187.2068-.1667.0438-.0506-.0442-.1053-.0641-.1506-.0135-.0854.2708-.024.2699-.2814v.0014c-.0063-.1374-.0126-.28-.0167-.3667C.5027.7333.4989.452.4938.1693" fill="url(#N)" transform="matrix(1 0 0 -1 40.9104 53.569)"/><path d="M.0287.0547C-.0645.036.35.0533.3989.1653.448.2787.1213.0733.0287.0547" fill="url(#O)" transform="matrix(1 0 0 -1 83.8437 73.969)"/><path d="M.0328.076C.0251.0253.0729.0307.0921.1187.099.148.1401.148.1328.168.1131.2213.0453.1573.0328.076" fill="url(#P)" transform="matrix(1 0 0 -1 83.8437 74.369)"/><path d="M.0948.3333C.0921-.0707.1193.16.176.3227c.0385.1106.1141.1106.11.168C.2765.6187.0921.56.0948.3333" fill="url(#Q)" transform="matrix(1 0 0 -1 85.0437 72.9024)"/><path d="M.2292.7733C.2084.788.2202.8187.1896.8187.1771.8173.1526.836.1526.8133.1345.708.1017.6093.0616.5133L.052.488C-.0156.3493-.0145-.3453.476.5027c.3183.54.0167.1093-.2468.2706" fill="url(#R)" transform="matrix(1 0 0 -1 74.777 83.169)"/><path d="M.277.2533C.2022.1827.1225.164.1.084.0693-.024.249.0853.3505.2067.408.276.4011.3453.4151.388.4355.452.3599.3307.277.2533" fill="url(#S)" transform="matrix(1 0 0 -1 85.7104 72.9024)"/><path d="M2.535 1.56c.2734.3187.5014.6187.1989.332C1.8297 1.12 1.0984 1.096.1557.148.0021-.0067.3292.2653.4115.3067c.539.268.9864.0826 1.6964 1.048.0744.1093.264.0146.427.2053" fill="url(#T)" transform="matrix(1 0 0 -1 88.777 79.0357)"/><path d="M.8412.596C.5771.38.4708.888.1391.084.1027.012.0667-.0773.577.2627.7776.396.9213.6667.8412.596" fill="url(#U)" transform="matrix(1 0 0 -1 91.7104 77.3024)"/><path d="M.137.3147C.0051.16.0692.0627.0692.0627.1484-.08.6588.3013.5161.3307.373.3613.2188.4093.137.3147" fill="url(#V)" transform="matrix(1 0 0 -1 79.177 79.7024)"/><path d="M.097.156c.0103.008.0265.0133.0202.0547-.0073.04-.085-.004-.085-.004C-.0182.1853.086.1467.097.156" fill="url(#W)" transform="matrix(1 0 0 -1 79.8437 79.569)"/><path d="M.4693.3187C.4224.324.1011.4173.1265.3813.1527.3427.1588.3373.1755.3067.1927.2773.2636.3467.2536.32.2437.2933.2068.24.2484.1573c.0885-.172.2095.0934.2699.08.0609-.016-.0022.076-.049.0814" fill="url(#X)" transform="matrix(1 0 0 -1 83.8437 75.969)"/><path d="M.675.2693C.7048.372.6996.2813.7053.224c.0052-.06.051.016.0355.1307-.0152.116-.1672.18-.2652.112C.3787.3973.2197.2053.064.0867-.0916-.032.6448.1653.675.2693" fill="url(#Y)" transform="matrix(1 0 0 -1 84.2437 71.8357)"/><path d="M.0427.0013c.1677.128.327.2614.4766.408C.4855.3893.45.3613.4172.3467.2797.2027.174.2613.0427.0013" fill="url(#Z)" transform="matrix(1 0 0 -1 92.9104 76.369)"/><path d="M1.727 1.0813c.2329.12.574.2107.687.36.0563.0747.0652.0614.1215.1987.0676.1667.1285.2173.1676.2853.0396.068.06.1227.1568.1974.098.0746.5609.228.4412.0986-.1204-.1293-.0022-.1413-.1167-.2573-.115-.1173.1328-.3187.0427-.3853-.0891-.0667-.176-.1027-.2396-.1427-.4828-.2987-.5796-.0773-1.5834-.7413-.0344-.0227-.0749-.02-.1177.0373-.0224.032.1505.1987.4407.3493zm-.0686.4347c-.0568-.0213-.1235-.0493-.1985-.0413-.075.0093-.0724.0106-.112.0293-.0395.0187.3661.0333.3105.012zM.5937 1.2267c-.1806-.14-.3297-.52-.3686-.544C.1864.66.038 1.016.0667.6093.0953.2027.8495.4787.724.2853.6625.192.6448.2467.689.1533.7324.0613.8345.0787.8085.1227.7817.1653.7614.368.8276.3533.8516.348.9177.3027.9891.2507c.0802-.056.2177-.0027.2672.076.0358.056.0973.0893.1573.1133.0213.0093.0432.0173.063.0253.0775.0307.1843.128.2703.212.0812.0787.2504.204.4244.3014.1746.096.5642.1733.7412.2386.1974.0734.2802.1094.4515.1254a.0742.0742 0 01.06.04c.0484.092.0135.2506.211.3173.1962.064-.1975.1173-.1022.252.0948.1373.1756.3693.0245.32-.1494-.0507-.2037.008-.1109.0307.0927.0213.1681.036.2015.0466.0333.0094.1324.1214.1562.2094-.0109.0986-.1025.148-.1281.2066-.0312.0747-.002.1494-.0697.1654-.1224.0306-.1251-.1867-.0839-.2707.0401-.0853.0375-.1653.0303-.1987-.0058-.0346-.0199-.0746-.0402-.0773-.0204-.0027-.0333-.0053-.0333-.0053-.0661-.0094-.073.048.002.0706.0735.0227.0063.1934-.0052.1574-.04-.1374-.265-.26-.2583-.0934.0058.168.1422.004.1828.2067.0088.0467-.4354.144-.3724-.236.0334-.2013-.6114-.3533-.5641-.396.048-.0427.2043-.1133.1204-.1067-.0833.0054-.023-.3346-.0901-.2866-.3698.2586-.2803-.732-.5766-.1774-.0333.0627.1203 0 .1463.1507.013.0747-.0547.0747-.1296.0227-.0787-.0534-.1437-.1414-.2365-.1574-.0922-.0173.2714.156.0157.2547-.2557.0987-.5215-.1307-.5496-.16-.027-.0293.0376-.1147-.0468-.1547-.0833-.0426-.5093-.1586-.5599-.0866-.027.0413.0156.04.0724.104.0567.0626-.289-.112-.2584-.2254.0298-.1106.4042.1027.2224-.0386z" fill="url(#aa)" transform="matrix(1 0 0 -1 80.1104 78.769)"/><path d="M87.2947 51.0427c-.0267.036-.044.0533-.0574.08-.0266.0586.064.144.084.144.0214-.0013.0334-.1227.032-.1454-.004-.06-.0186-.1186-.0586-.0786zm-.0574.848c.0187.0466.0387.248.0587.1533.0373-.1373.0867-.2653.02-.3733-.0253-.0427-.0693-.0827-.14-.1187-.096-.044.0173.2347.0613.3387zm-.1093.1293c-.0293-.0893-.528.572-.4027.712.028.024.0907-.072.2067-.1347.076-.0426.2093-.0333.2493-.0973.0587-.0973-.0226-.116-.0613-.228-.0147-.048.0227-.2333.008-.252zm-.6067-19.4773c.084-.048.1174-.328.0894-.5254-.0147-.1013-.044-.1813-.092-.1973-.0867-.0533.0013.1227.0013.2467 0 .0746.056.1866.0453.2813-.0173.1493-.0987.2613-.044.1947zm-.82 23.9893c-.096.0613-.208.3307-.18.3893.084.176.212.5427.1774.3414-.0027-.0387-.0814-.344-.0814-.3747-.0053-.2013.2467-.4693.084-.356zM74.8568 14.32c-.5833-.448-.4047-.4333-.6464-.6053-.2416-.1734-.2287-.2094-.5145-.428-.286-.22-.4907-.3507-.6386-.456-.148-.1027-.1213-.044.037.0666.1584.1107.1182.1507.2188.2374.1005.0866.0932.0466.2254.152.1318.1066.1432.1186.2475.232.1041.1146.0395.024.2484.172.2099.148.3635.3186.527.504.162.184.4063.3626.3938.3253-.012-.036.3027.108-.0984-.2zm-2.875 2.22c-.602-.2907-.7417-.624-1.0515-.9427-.3095-.3186-.3491-.0733-.1163.1227.2324.1973.0407.2147.0043.3213-.0365.108.214-.096.3063.0427.4588.5373.6776 1.1173 1.1932 1.4133.5161.2947 2.4338 2.6027 2.2344 2.3027-.1986-.2973-1.9683-2.9693-2.5705-3.26zm-.1635-3.728c-.2402-.6053-1.8344-1.4133-1.8595-1.3427-.0228.0627.2448.1814.5157.384.263.1987.411.5534.6728.744.3106.228.7111.272.671.2147zm-1.4172.408c.151.116.0858.004.2729.044.1859.0427-.7333-.4693-.7787-.4693-.0458 0 .3547.3106.5058.4253zm-.7423-2.1827c-.1088-.0826-.4-.3-.5968-.4413-1.7057-1.2307-3.3-2.0987-4.8953-2.992-.2292-.1293-.5058-.3027-.9531-.2493-.3923.0466-.5641-.1507-.4475.112.1172.264.7495-.2134 1.2375.404.0401.0666-.1396.072-.0885.116.1969.228.3453.204.4557.2053.1104.0013-.3505-.0773-.3281-.2387.0516-.3733.3912.14.5833.1707.1923.0333.1204.152.098.208-.0219.056 1.6677 1.332 1.9547.8347.0093-.0507.413.164.5374.4186.1246.252-.3188-.04-.2234.0587.0958.1 1.863 1.1227 2.8021 1.7173.0859.0574-.0677-.092-.0833-.1373-.0162-.0453.0568-.104-.0527-.1867zM64.6271 7.3c-.0678-.0853-.1298-.0013-.2911.0187-.162.0186-.1943-.0454-.3652-.1334-.1713-.088-.0905-.0093-.0681.0294.0224.0386.09.1226.2457.1733.1547.052.2584-.012.359 0 .1.0133.1066.0213.1937.0653.0462.024-.0063-.068-.074-.1533zm-1.861-.2053c-.5354-.6054-1.0672-.5734-1.3161-.228-.1355.148.3495-.068.6016.2386.0287.0294-.05.0014-.1141 0-.6182-.0133-1.0687.4547-1.9432-.32-.1427-.1186-1.2022-.5426-1.3542-.4093-.1428.1333.5126.0453 1.2719 1.2253.1765.2414 1.6036.396 1.6719.3494.0265-.0174-.1235-.16-.3459-.2334-.3448-.1146-.7979-.1786-.5213-.236.4822-.0813 1.3702.2427 1.9958 1.1507-.0537-.2653.1828.044.25.0747.0615.032.0427.1266.0463.1733.0297.0307.0297-.2253.2068-.2427.177-.0173-.4-.1213-.4093-.2626-.01-.1427.0713-.252.1489-.2427.2355.028 1.0265.9.9787.5027 0-.136.1833.2213.2661.288.4683.3773.7604-.0894 1.264.3333.3324.2853.689.544.9141.644.2246.1.4298.1173.6344.232.2036.116.6771.576.376.2-.3-.3747-3.1702-1.7533-4.9276-2.7747-.2208-.128-.4521-.1786-.3864-.2026.0952-.0267.1984-.3027.3343-.2374.263.1267.435.0467.3573-.0226zm-1.9416-.1854c-.0672-.0533-.0953-.0986-.1344-.0226-.0385.076.2011.0746.1344.0226zm-.0994-.9693c-.4912-.6093-.5975.4067-1.1928-.0587-.5948-.4653-.0068.1414.098.208.2942.184.8874.0387 1.2233.236.1204.0694.1803-.004-.1285-.3853zm6.1765 4.6147c.173.16.8323.3306.7224.2586-.1792-.112-.289-.208-.538-.4013-.248-.192-.3563-.0173-.1844.1427zm1.039.5293c.1234.0973.1766.3173.1567.18-.0004-.42.6918.5173.8224.1093.0412-.1186-.703-.2213-1.1093-.448-.0959-.0546-.0063.052.1303.1587zm-.4218.8933c-.0896.2467-.4776-.296-.5933-.256-.1151.0414-.5042.2774.0193.408.5235.1307 1.315.5547 1.1984.336-.2344-.4973-.5959-.5666-.6244-.488zm.9921.084c-.0598-.0226-.0754-.0533-.0896.004-.0208.068.1563.0627.2162.0414.0365-.0067-.0678-.0214-.1266-.0454zm-2.313 4.5067c-.2266-.1373 2.7453 2.5467 2.9928 2.82.2468.276.1692.116.0208-.06-.1475-.176-.9506-1.5867-2.1079-2.0333-.2328-.088-.6785-.5894-.9057-.7267zm-.2708-.932c.0354.1307.1494.1187.2.084.0505-.0333-.2354-.216-.2-.084zm3.5322 4.084c.0719.116.0834.128.1532.2427.0698.1146.0906-.0414.0292-.104-.061-.0614-.2537-.2494-.1824-.1387zm-.0041-7.136c.0183-.0533-.1896-.136-.2573-.164-.0828-.032.2166.268.2573.164zm-.0464 6.1227c-.1219-.2067-.2572-.5214-.2197-.272.0588.396.512.7346.3916.468-.0447-.1-.0995-.072-.1719-.196zm.5027-.8867c.1245-.072-.0932-.0587-.136-.0787-.0386-.0173-.0807-.0266-.1244-.04-.0631-.0813-.1918-.4093-.188-.244-.0308.3734.1666.5227.4484.3627zm-.1563 2.2693c.0521.0814.1792.3974.1937.3054.0147-.092.0407-.1854-.012-.2454-.0525-.06-.2328-.1413-.1817-.06zm.5032-1.768c.1061.092.275.288.215.1867-.0598-.0987-.0775-.1333-.1531-.24-.076-.108-.1687-.0413-.0619.0533zm.2233 2.376c.0292.0867.1267.1454.2912.3294.1646.1853.1391.192.2714.4466.0478.092-.0192-.2333 0-.3013.0197-.0667-.097-.1173-.1746-.204-.0776-.0867-.1744-.116-.252-.184-.0781-.0667-.165-.1747-.136-.0867zm.3855-1.6946c.0521.0586.1563.2826.1099.08-.0464-.2027-.1615-.1374-.1099-.08zm-.239-.3c.0385.06.1191.1693.1645.212.0464.0413.0958-.0587.0302-.104-.0656-.0467-.2328-.1694-.1948-.108zm.3953-.876c-.1074-.1467-.4194-.416-.3251-.2654.0937.1534.0937.1534.2495.3947.1557.2427.1833.016.0756-.1293zm1.101 2.4373c.0542.0747.0375-.0333-.0105-.116-.0484-.084-.0728-.1-.1588-.1507-.0859-.052.1141.1907.1693.2667zm.6755-1.5373c.1688.1173.224.1773.1421.0746-.0822-.1026-.2989-.3746-.4322-.552-.1328-.1786.1213.36.2901.4774zm.7833 1.336c.2052.028-.5416-.5427-.6297-.6427-.0885-.1.01.56.6297.6427zm-.1588 8.0733c.0719.0827.0104-.1107.0151-.1533.0011-.02-.1161-.0734-.1527-.1734-.04-.1106-.0015-.268-.0405-.2453-.177.0827.0583.436.1781.572zm.5468-6.96c.0828.0747.0136-.02-.0186-.1-.033-.0787-.0292-.14-.073-.1947-.088-.108-.075.144.0916.2947zM57.7375 6.1547c-.1735-.0534-.3291-.2307-.526-.212 0 0-.1516.0373 0 .0746.0912.024.189.1214.2973.1627.0715.028.3303-.0013.2287-.0253zm-.2198.172c-.0776-.024-.189-.1534-.2166-.0414-.0167.0694.1562.064.2166.0414zm-.8104-.0867c-.0433-.04-.5266-.2893-.8589-.2667-.0224.0014-.0124.0534.2428.0867.2552.0347.6593.2187.6161.18zm8.8807 11.34c-.0463 0-.1323.0013-.175.0227-.0427.0213.1307.0306.1891.0306.0588 0 .0328-.0533-.0141-.0533zm-.325-2.6627c-.1917-.1906-.3885-.4306-.825-.3173-.2463.064.747.5533 1.112.5347.0615-.0027-.162-.0934-.287-.2174zm-.2682-1.5506c-.0697.02.0672.0426.0959.0786.0286.0334-.0267-.1026-.0959-.0786zm-.7641-.0053c-.1995-.1267.0125.0813.0261.1746.0463.3454.449.236.6823.3454.0448.0226-.5427-.416-.7084-.52zm.4464-.0747c-.0298-.0734-.1334-.3227-.1334-.0227 0 .104.0323-.0133.1036.068.0704.084.0606.028.0298-.0453zm-.3328-2.1107c-.0454-.128-.125-.0667-.0771-.012.0468.0547.0604.092.2355.284.176.1947-.1126-.144-.1584-.272zm-.199 1.7907c.0041.1226.3594.3666.3354.176-.0056-.0414-.0739-.0454-.1004-.0787-.0964-.116-.2391-.1933-.235-.0973zm.0687-1.6067c-.0837-.1147-.2228-.168-.2577-.1173-.0339.0493-.0787-.1147-.0766-.016.001.1.023.0626.0916.0746.0683.012-.0598.092.0516.1094.1104.0173.274.064.1911-.0507zm-1.0047-.3773c-.3317-.1147-.6738-.3107-.6181-.172.0552.1346.0463.2026.137.2906.0911.0867 1.0682.3387 1.151.3467.0823.0107-.098-.1773-.1052-.2973-.0032-.056-.277-.068-.5647-.168zm-.3973 1.8933c-.0719-.0067-.1115.064-.025.124.0485.0347.1042-.0773.2542.0867.099.1066.2463.1226.2197.072-.0297-.0574-.0921-.1227-.1724-.176-.0797-.0534-.177-.096-.2765-.1067zm-.0625.448c.1046.0853.0568.3147.1677.3893.0755.0507.088-.0173.1468-.044.0797-.0346.1881-.0506.1308-.1226-.1615-.204-.55-.308-.4453-.2227zm-.4536.2027c.0338.24.1738.088.3025.176.1276.088-.3364-.4147-.3025-.176zm.3265-.3267c-.1948-.168-1.1307-.7907-1.7219-1.0413-.1198-.052-.225-.076-.3598-.132-.0746-.032-.1495.0453-.2152-.036-.0495-.06.049-.2574-.2348-.2147-.1095.016-.1323-.0853-.036-.132.0964-.0467.1-.064.098-.1107-.0032-.0453-.1584-.1053-.1496-.2773.0095-.172-.087.0973-.2307.088-.1443-.008-.051.064-.062.156-.0104.092-.2161-.0693-.2235.052-.0072.12.1142.1253.0834.1907-.0307.064-.1255-.0694-.1536.1013-.0156.0987-.0068.352.1645.496.1276.108.4224.0907.4767.2667.0546.176.2208.3653.3728.2373.151-.1293.1896.236.0354.1333-.1541-.104-.4182-.0906-.3885.076.0297.1654.126.536.2375.152.0338-.1173.2948.0294.487.2134.1162.1093.1448.3.2578.2613.3-.1.2942.2253.4917.2067.5317-.04 1.2765.5386 1.3099.5613.0333.024.1025.1427.1025.0227s-.5-.1974-.5353-.568c-.0142-.1387-.2808-.2627-.5818-.1454-.301.1187-.2589-.2533-.1974-.336.062-.0826.1802-.252.2021-.0426.0213.2093.0735.0373.1328.0213 0 0 .065-.0307.1323.1067.066.1386.1874.1253.0958-.1707-.0928-.296.6047.0333.4099-.136zm-.185-.688c-.0457-.06-.078-.1853-.1035-.0667-.0255.116.1484.1267.1036.0667zm-.2567-.1413c-.0244-.0534-.0958-.092-.1495-.1014-.1395-.0253.0855.176.1308.248.0287.0454.0588-.0613.0187-.1466zm-.349-.2107c-.1052-.0533-.4025-.2347-.5812-.1453-.1828.0946.687.2.5812.1453zm-.9844-.336c-.0249-.1093-.15-.4427-.2801-.172-.074.1533.0245.2.103.1787.0793-.0214.2027.1.1771-.0067zm-1.6176.4707c-.0256-.208-.3948.208-.2516.212.1427.004.197.0573.2735.152.0957.12.1339.324.149.272.027-.0947.026-.2507.0833-.164.0573.0853.1718.1813.3286.1573.1583-.0253-.5578-.4213-.5828-.6293zm.0651-.5467c-.1213-.0413-.3084-.2027-.4953-.1813-.187.0226-.0438.16-.0025.2266.041.0694-.0991.0134-.0844.076.0134.0614.3426.052.1568.1134-.1871.0626-.322.0906-.4776.1266-.1554.032.4801.408.4984.308.0182-.1013-.3918-.276-.2647-.2706.1272.004.359.0226.335-.0227-.025-.044-.1854-.0173-.0574-.0933.1287-.0747.449.2093.3996.0213-.048-.18.1145-.2627-.0079-.304zm-.4797-.5587c-.2443-.0413.036.1187.2396.1987.0948.04.1844.112.1776.0467-.0208-.208-.06-.184-.4172-.2454zm-.2558.5747c.061.0547.1314.1293.1147.0853-.0313-.076-.075-.1746-.1693-.1533-.0416.0093.0063.028.0546.068zm.2396-1.7693c-.1353-.0147-.2765-.1627-.3984-.1254-.0562.016.0776.08.1875.1587.1308.092.3459-.0187.211-.0333zm3.9032 5.5973c.05.048.061.0333.0766.0293.016-.004.0385.0027.0234-.012-.0292-.0306-.2-.112-.1-.0173zm.3563-1.2067c.0093-.096.1547.0427.1613-.1.0084-.1413-.0744-.212-.2744-.34-.1989-.1266.1047.5387.1131.44zm.2719.2214c.2509.18.2921.2293.4588.2.1322-.0227-.3402-.1187-.4246-.2707-.038-.068-.3172-.1347-.0342.0707zm.4817-.7827c-.0172-.18-.1844-.132-.2808-.172.0652.1627.1563.3027.2808.172zm-.3125.024c-.3411-.4347-.4026.0507-.262.136.1401.084.9256.536 1.0428.5987.1176.0613-.4396-.2987-.7808-.7347zm.5521-.5173c-.023-.048-.0781.0213-.124-.024-.062-.06-.1115-.2147-.0973-.088.0233.2213.2744.224.2213.112zm-.1319.46c.111.116.3407.3906.6319.3306.1104-.024-.1177-.0733-.2552-.1453-.223-.1173-.4453-.2573-.3767-.1853zm-.4061 1.736c.0667.1133.0833.2413.2061.0546.0834-.1266.4964.1374.5147.2094.0183.0733-.1047.1746-.036.2213.0276.02.1604-.0333.288-.0013.1839.0467.7745.42.5912.1453-.1839-.2746-.6839-.644-1.1183-.7133 0 0-.4473-.092-.5666-.092-.0563 0 .0625.0773.1209.176zm.5176.4586c.037 0-.0244-.0213-.0776-.064-.0343-.028-.0452-.0813-.0916-.0906-.1172-.02.1088.1546.1692.1546zm1.3043 1.6054c.0457-.0307.0593-.0934.016-.0987-.0436-.008-.0228.056-.1422.0267-.1697-.044.0803.1013.1262.072zM58.253 11.276c-.078-.0347-.1114-.036-.1671-.028-.0553.008.188.088.2333.1147.0443.024.0119-.0534-.0662-.0867zm-.0192-.2533c-.0907-.256-.4536-.2827-.3271-.1707.0593.0533.1187.0387.1937.0987.0844.0706.1807.2093.1334.072zm-.0479-1.024c-.1199-.0534-.1928-.0054-.3224-.0534-.037.2987.2427.084.2192.34-.0052.0587-.2208.0507-.3104-.016-.0896-.0666-.1057-.0493-.1536-.008-.0485.04.1176-.012.15.036.0328.0494.2681.2574.4115-.1226.0156-.0414-.1282-.0387-.07-.0627.059-.0227.1965-.06.0757-.1133zm-.4953-.06c-.058-.0867-.5714-.456-.6912-.504-.1203-.048-.4323-.0307-.5432-.08-.1099-.0494-.147-.2587-.3084-.344-.1615-.084-.2823.0373-.426 0-.1438-.036-.3662-.1654-.2579-.0427.1095.1213.159.18.148.2147-.0104.036-.0547.0906.0396.068.1448-.0334.3536.0013.527.1253.0506.0373.322.116.4126.1747.1077.0693.041.1226.1687.1786.0552.024.1208-.036.1745-.0213.0703.0187.1281.1107.1896.1053.3067-.024.1181-.032-.061-.1266-.1786-.0934-.2318-.2374-.0447-.1347.1874.104.4901.2947.5806.3867.0918.0906.149.0853.0918 0zm-1.2376-.8694c-.0536-.0506-.0891-.1146-.15-.0973-.0348.0107.1542.1587.1922.2307.0386.0706.0391.024.061-.0507.0093-.0347-.059-.04-.1032-.0827zm-.6588.4347c.1484.008.2974.0067.1464-.0373-.224-.0627-.2475-.1654-.3032-.0987-.0568.0653.0182.048-.0203.1227-.0385.0746.1068.012.177.0133zm.7317.4187c.0417.008.0776.0373.0745-.004-.0052-.0907-.0568-.0747-.1328-.0227-.0406.028.0115.0187.0583.0267zm.5964.156c-.0479.0186-.0547-.0854-.088-.0894-.0079.0494.0541.16.088.0894zm.6167.7493c.0802.0107.1526.0573.136.032-.035-.0547-.1079-.2453-.2256-.0867-.0558.0734.0172.0467.0896.0547zm-2.3918-1.7707c-.026-.1533-.2722-.2906-.2166-.2133.0553.0787-.0614.2027.0584.1933.1188-.0093.1849.172.1582.02zm-.0118.428c-.0308-.0066-.0808.012-.1199.0307-.039.0187.1745.0347.2115.0347.0369 0-.062-.0587-.0916-.0654zm2.427 2.296c-.0562.032-.0698-.0173-.1166-.0346-.1-.0374-.0776-.1814-.1724-.236-.0943-.0547-.262-.1294-.3516-.1614-.0896-.0306-.036.0627.0265.124.062.0614.1167-.0067.2027.0507.0858.0573.112.0813.1948.1653.0514.052.1312.0894.1614.1134.0291.0226-.0516.0293-.0958.052-.1042.0506.5776.1146.6812.1613.1046.0467-.386-.3133-.5302-.2347zm4.6422 3.4587c-.0151-.0307-.061-.0427-.0968-.076-.0683-.0613-.1324-.1307-.0991-.072.051.088.109.14.199.276.0891.1347.0427-.036-.0031-.128zM50.0443 72.8027c-.414-.1387-.8776-.024-1.1776-.38-.0656-.092-.1604.1-.226.0813-.0656-.0173-.1047-.088-.1672-.1533-.0391-.0414-.1484.0453-.2418.0733-.0582.0147-.1593-.0507-.25-.08-.0478-.012-.0478.0307-.0677.036-.1973.0227-.4583.1147-.5233.068-.0131-.0107-.0267-.02-.0391-.0307-.0385-.0386-.1376.1134-.2156.1347-.1183.032-.2557.0667-.3672.036-.339-.0907-.9715-.1333-1.0276-.0333-.0428.0946-.0339.232-.1365.3-.0396.0133-.0927.0493-.138.04-.388-.0694-.7735-.152-1.1604-.224-.1547-.0294-.3115-.056-.4683-.064-.2224-.0093-.4453.0027-.6677-.004-.225-.0067-.4578-.0427-.5667.2493-.0285.1013.1636.2107.123.312-.074.1987-.1553.416-.2438.6533.0355.1307.1443.1227.2719.1027.1437-.0227.2917-.0213.4374-.0387.2762-.0293.5522-.06.8272-.0973.2182-.032.4286-.044.5624.092.0746.0693.3792.0747.5475.092.201.0227.4093.0613.6036.0293.1781-.0306.3423-.1466.5021-.2466.2839-.0814.573-.1547.8791-.0814.097.024.2105-.0146.3152-.0306.2848-.044.7255-.0294.8937-.1414.0339-.028.0635-.1666.1828-.152.2407.0453.5527.1947.7323.1387.3417-.104.6568-.2027.7079-.3093.0286-.1067.2046-.3294.0984-.372zm-7.2214-.68c-.0854 0 .0407.0653.0568.092.0354.0586.063.104.09.148.0178.032.071 0 .0798-.0494.0188-.1146-.0302-.1746-.2266-.1906zm-2.3224-.3507c-.0661-.0147-.1073.0227-.0661.0547.0583.0573.05.1266.0683.1586.0186.0574.0312-.1.0686-.14.099-.0533-.0063-.0586-.0708-.0733zm-.2292.332c-.2134.024-.1984.0947-.1068.1027.0276.0067.0538.104.0819.02.012-.0534.1968-.0627.2093-.1147.0583-.1533-.1562-.0013-.1844-.008zM13.9527 13.4067c.0036.0226.0478-.0454.0613-.052.0923-.044.0615-.24.1261-.34.0807-.1214.2719-.3854.2588-.4547-.004-.024-.0754.0373-.1229.0493-.162.036-.3421.6667-.3233.7974zm4.4864 14.0386c.05.0974.1.1947.162.3147.1177-.276.1082-.3093-.1506-.5947h-.3333c.024.2134.224.1867.3219.28zm.774-1.9626c.1208-.0294-.3376-.2267-.2642-.2814.1328-.1106.1151-.3.1683-.4586.0307-.0894.1412-.2774.2005-.2227.2859.2507.3016.652.5151.9347.0812.1333.3901.076.5964-.1574.0364-.0413.1563-.0946.1177-.1453-.0761-.2947.0755-.512.2542-.6933.2077-.2027-.5167-.3254-.4558-.4827.0167-.0453.0255-.124.0678-.1773.3509-.4427.1634-1.1414.6172-1.504.1645-.1307.3224-.2614.3098-.4587-.0095-.144.2823-.156.126-.2107-.1896-.0067-.303.1107-.412.228-.539.5814-1.088 1.152-1.6072 1.7507-.2718.312-.4881.672-.7308 1.008-.05.0693-.1156.128-.162.2-.1166.18-.2369.36-.139.6227.0485.128.4724.1666.798.048zm.402 1.0333c.187-.0387.039-.1133-.1624-.18-.0647-.0227-.4079.568-.4439.6973-.0796.2507.3772-.468.6063-.5173zm.1704-.7987c-.11-.0946-.1896-.2333-.2912-.2946-.1042-.0574-.0563.0506-.0328.088.0286.0573.0666.1226.0494.1666-.042.1094-.2864-.044-.2525.02.1333.264.3113.2814.6979.0507.076-.0467-.1058.024-.1708-.0307zm1.6676-.9386c.1625-.1427.3021-.3174.437-.4894.023-.0293-.0057-.1386-.0437-.168-.05-.0373-.1516-.04-.1975-.0426-.2244-.0134-.3202.4133-.4942.6013-.1474.1773.2204.1693.2984.0987zM32.1855.7307C32.2.6733 32.2292.62 32.316.6013c.0875-.02.223-.0226.359-.0293.1353-.0053.2421.004.315-.0387.073-.044.1459-.0733.2474-.0733.1016 0-.0886-.108-.1547-.092-.2213.0533-.4077.0253-.5099.0387-.1016.0146-.3098.0773-.3636.1306-.053.0547-.1066.132-.1066.1934 0 .064.0676.0586.0828 0zM8.8459 67.2427c-.1147.0093.0692.0653.0978.0933.036.0333.085.2067.111.104.0256-.1813-.026-.2173-.2088-.1973zm-.4604-.2494c-.0443.0147-.0912-.0693-.0787-.0213.0296.1213.1016.1453.1755.012.048-.1027-.0287-.012-.0968.0093zm-1.3819-2.36c-.0921.076-.073.1307.0579.224.076.064.0197-.12.012-.1533-.0058-.024.0833-.2547-.0699-.0707zm-.2385-43.16c-.0156-.048.0245-.2173.037-.3226-.027-.0067.0172-.1587.001-.2054-.0146-.0453-.1646.4907-.25.596-.0848.1067.1964.068.3162.1774.1198.1093.1286.2026.1834-.016.0561-.22-.2724-.18-.2876-.2294zm-.2963.56c-.025-.0093-.0167-.0986-.089-.0226-.073.076-.0047.1866.0629.2266.0234.0147.0542.1214.0876.0334.0328-.088.0462-.1974-.0615-.2374zm-.511.5134c-.0583.1093.0302.2893-.0094.3813-.087.204-.1812.408-.3525.5413.1645.024.2718.2.3213.048.0495-.1533.311-.444.5495-.5813.113-.064.1093-.2053.0521-.3533-.0365-.0947-.0667-.212-.1573-.2774-.0568-.0413-.3068.056-.4036.2414zm-.301 40.9386c.001.132.0547.1947.125.2427.0515.0347.1818.2.164.104-.0051-.2227-.0062-.2587-.1734-.3133-.0312-.0093-.1156-.1107-.1156-.0334zm.9183.6427c.0561.1.0722.1507.1056.1787.0245.02.0729.0106.1209.016.3005.032-.3073-.3494-.2265-.1947zM.7787 46.0147c.0582-.084.1036-.0947.1562-.1427-.0084-.092-.1114-.0733-.2026-.1293-.0703-.0427-.2198-.5747-.2198-.136 0 .44.1126.836.4323.856.1859 0-.3281-.2187-.1661-.448zm-.3751-1.82c-.0208.108.0043.0373-.0437.3266-.0474.2907.1422-.0733.1756-.1186.1093-.1494.0014-.352.0812-.5667-.2412.0653-.1948.26-.2131.3587zm88.0017 3.788c-.0613.1013-.2133.168-.1693.2773.0387.112.072.212.1133.3307.052.1386-.1866.204-.2773.308-.1187.1346-.2013.2866-.1427.4693.072.2347.012.4373-.092.6493-.064.1294-.128.2934-.1026.4254.0493.2693-.008.5106-.088.756-.1334.4106-.1707.8346-.1587 1.2653.028.1093-.0893.1533-.1293.2293-.152.292-.2654.596-.316.9294-.0307.208-.008.4346-.16.6133-.1254.148-.144.3267-.1427.5147.0013.1693-.0053.3453-.0467.508-.1386.5466-.4146 1.0506-.516 1.6106-.016.088-.0893.1667-.1453.2454-.048.068-.2293.08-.1693.2013.0533.1267.2346.2667.1573.372-.2333.3867-.4347.788-.3373 1.1533-.1187.3587-.2054.6187-.292.88-.0174.0507-.028.1067-.0574.148-.1373.1907-.1893.4067-.2173.632-.0253.1854-.108.3294-.2507.468-.132.1267-.204.3187-.2946.4867-.048.0893-.0814.1867-.12.276-.0347.0947-.208-.0267-.3214-.0413-.1788-.0187.2934.4986.232.6573-.1026.22-.2066.4253-.4009.5507-.2244.1466-.1812.516-.2635.6066-.1605.152-.1922.34-.2037.5547-.0083.1573-.1161.3147-.1984.4613-.061.1094-.15.2054-.2308.304-.129.156-.2619.308-.3927.4627-.0202.0253-.0525.0173-.0625.0867-.0083.0866-.0181.18-.0276.2746-.0181.184-.2192.344-.315.52-.0495.092-.1135.176-.1777.26-.1301.168-.264.332-.3958.5-.164.2094-.3172.428-.4927.6254-.1093.124-.185.2426-.2312.408-.077.2746-.0412.5813-.239.8226-.1017.124-.1902.26-.2683.4-.149.2654-.3099.5174-.6094.62-.1146.0627-.2261.4147-.4709.5107-.1973.076-.3448.232-.4041.4667-.0344.136-.1302.2813-.2407.3693-.1353.1067-.315.1587-.528.26-.2084.1893-.0021.4387.0265.7027-.0037.1253-.188.316-.3209.3786-.1556.0547-.326.108-.417.224-.3626.4614-.6949.948-1.0511 1.416-.2276.3014-.4694.5974-.9204.5574-.1198-.0254.0453.244-.0282.3106-.1046.072-.2098.1427-.302.2054-.1036.0733-.2912-.128-.3702 0-.0366.0906-.0704.188-.1142.2786-.053.112-.088.2627-.1792.3227-.4962.336-.826.8747-1.389 1.1253-.0458.02-.0724.0787-.114.112-.2844.2214-.5626.4547-.8599.6574-.2699.1853-.6104.2586-.8043.564-.0572.0906-.1838.16-.2916.1906-.2265.0614-.389.2147-.5765.3347-.4417.284-.8937.5493-1.3355.8307-.315.2-.6473.32-1.0276.3226-.0989 0-.238.0774-.2874.1614-.1954.3293-.486.5346-.8126.7053-.2188.1133-.4338.2333-.6573.3373-.4927.2307-.9885.4547-1.4843.6787-.2521.116-.5073.224-.7573.3413-.1647.0787-.3167.18-.4828.2547-.1235.0547-.25.1027-.3765.1507-.333.1253-.6683.2453-.9516.4773-.0396.032-.0964.0467-.148.0627-.3187.092-.6031.2306-.7192.5893-.0432.14-.8126.2333-1.2142.3453-.2369.0667-.4708.1614-.7114.1894-.4266.048-.8203.2466-1.2594.236-.1953-.0053-.3916.0533-.5885.0826-.1437.0214-.3077.0507-.414.1467-.3396.3027-.7495.364-1.175.4027-.3078.0266-.614.0773-.922.108-.2343.024-.4687.0413-.704.044-.1257.0027-.2511-.0347-.3766-.0494-.1147-.0133-.2521-.0666-.339-.0226-.2809.14-.586.1106-.8725.1773-.4469.1027-.8698.056-1.3021-.0373-.113-.024-.2421-.0453-.347-.0133-.4155.128-.8431.1293-1.268.176-.4809.0533-.9375.0133-1.3095-.0894-.1328-.056-.638.2467-.9015.2174-.2803-.032-.5516-.0174-.825-.0107-.512.0133-1.0235.044-1.5354.0653-.4792.0187-.959.0373-1.4385.052-.4391.012-.8792.0187-1.3178.0267-.2021.004-.4042.0107-.6057.0013-.4147-.0187-.8204-.0933-1.2459-.0373-.5312.0706-1.0745.2226-1.6136.0186-.0186-.0067-.0437-.0053-.064-.0027-.2874.036-.4604-.1333-.6084-.3426-.0432-.0614-.076-.1267-.1129-.1894-.0953-.0293-.1855-.056-.2693-.0293-.0474.0133-.0077-.0213-.137.1013-.1308.1214.1563.0494.2208.0707.0948.0387-.1109.0293-.165.0373-.2427.036-.4714-.0106-.6938-.0706-.0865-.072-.1661-.14-.2-.1694-.2322.02-.4292.092-.5817.0387A3.0437 3.0437 0 0035.586 85c-.0401-.0013-.0813-.024-.1256-.0387-.0677-.08-.1359-.16-.1973-.2333-.0464-.0093-.0787-.0254-.109-.02-.4984.084-.9172-.1294-1.3348-.352-.4833-.2574-.9886-.4467-1.5537-.492-.1145-.02-.1828-.1547-.2807-.2374-.1281-.1053-.6786-.108-1.0182-.008-.0552.016-.1255-.0173-.188-.0333-.248-.0613-.4927-.1347-.7432-.1827-.174-.0333-.3271-.0893-.4595-.2093-.163-.1507-.3359-.2893-.5473-.4693-.085-.0934-.3366.0466-.4344 0-.1303-.0507-.2459-.1067-.3683-.1414-.212-.0586-.4265-.104-.64-.1546-.0647-.0227-.0485-.068-.1387-.0574-.1056.0147-.1358.1187-.1869.0707-.2057-.1893-.4505-.2547-.735-.1947-.1317.028-.2363-.0506-.341-.14-.2161-.188-.4339-.3906-.7005-.364-.1694-.1066-.287-.204-.4219-.2573-.1437-.0573-.2265-.148-.2907-.28-.0577-.12-.1349-.2307-.1968-.336-.0693-.1027-.3657.0293-.525.0307-.3688.0013-.6938-.116-.974-.3574-.1296-.112-.2026-.2426-.201-.42.0015-.1253-.0198-.2493-.0308-.3773-.0104-.0787-.1593-.0693-.2301-.084-.212-.0427-.4005-.1613-.5953-.2133-.3407-.0947-.6022-.2654-.8595-.4907-.1479-.1307-.363-.1787-.5395-.28-.2198-.1267-.6146-.3133-.6401-.4013a20.147 20.147 0 01-.0557-.2374c-.0194-.0746-.213.1054-.2276.028-.0292-.116-.0115-.2066-.073-.2853-.1328-.1533-.2817-.2427-.439-.2747-.1032-.02-.2522.0694-.3199.012-.2995-.2-.5613-.38-.677-.708-.0463-.1293-.1693-.1866-.3047-.2093-.1058-.0173-.2192-.0187-.314-.0627-.2396-.112-.5038-.2106-.5204-.5426-.0006-.0174-.0224-.0347-.037-.0534-.038-.0813-.1453.1-.1969 0-.027-.04-.064-.0813-.0833-.1293-.1343-.3333-.3786-.512-.7234-.624-.2781-.0906-.5365-.2626-.7781-.436-.3027-.216-.5797-.4693-.8672-.7093-.3287-.272-.6713-.5307-.9839-.82-.3994-.372-.7932-.752-1.1562-1.1587-.1746-.196-.4135-.3413-.5547-.5546-.0516-.0787-.036-.2267-.1073-.2654-.4359-.204-.5626-.5986-.6468-.612-.2574-.0386-.4079-.1973-.5538-.3773-.24-.296-.5005-.576-.7473-.8667-.2141-.2533-.427-.5053-.6297-.7666-.1474-.192-.2792-.3947-.4448-.6307-.0402-.0707-.087.0587-.1672-.0387-.2515-.372-.5026-.7426-.7583-1.1213-.0579-.0747.0547-.1413.0901-.232.0599-.152-.277.0213-.3292-.0547-.1046-.144-.2682-.284-.3188-.4573-.1374-.4613-.4942-.7653-.7468-1.1427-.2729-.4093-.5442-.8186-.8376-1.2133-.241-.3253-.4238-.688-.7066-.9893-.2308-.2467-.4262-.5414-.5771-.844-.1365-.2734-.2641-.5374-.4407-.66-.1641-.2694-.2625-.472-.3984-.6467-.3552-.4533-.6302-.9427-.7562-1.5107-.0855-.3853-.2543-.7466-.3022-1.1453-.0249-.2067-.1322-.4027-.2-.6053-.0838-.252-.2516-.5094-.2297-.76.0543-.624-.2853-.5787-.25-.74.099-.4014-.1265-.7267-.2615-1.0694-.103-.2626-.1442-.508-.0374-.7706h-.0015c.0181-.1254.038-.252.0593-.392-.2437-.2974-.4953-.592-.5396-1.044.0594-.1734-.0188-.3694-.1344-.5574-.1525-.252-.2208-.5306-.2609-.828-.0167-.0853.1287-.0613.211-.1013.1182-.052-.2574-.1093-.273-.208-.179-.9613-.1739-1.908.0928-2.848.049-.1253.1661-.0093.2364-.0147.0973-.0067-.011-.2306-.088-.336-.1797-.244-.3656-.484-.4297-.8013-.0812-.404.0365-.7907.0641-1.1827.0124-.188.0213-.3546-.0657-.528-.0458-.0906-.0719-.2053-.0656-.3066.0182-.3107.0594-.6187.086-.928.026-.2974.0713-.5974.0614-.896-.013-.4587-.0718-.9147-.0994-1.372-.0104-.1707.002-.344.0192-.5134.0177-.1786.0672-.4693.0838-.572.0178-.1013.1626-.3733.2438-.5826.1204-.3094.2318-.6214.3489-.9307.061-.16.1381-.3147.1912-.4773.1953-.6.3787-1.2054.577-1.8067.1203-.364.2287-.7267.2511-1.116.0136-.2427.1011-.4827.1131-.724.0135-.308.1005-.5867.2119-.8667a1.5785 1.5785 0 00.1032-.4373c.0109-.132.0021-.276-.0391-.4013-.0672-.2027-.163-.396-.2568-.5894-.0677-.14-.0625-.2666.0339-.3906.0526-.068.0932-.1454.151-.208.2708-.2934.3083-.6627.3615-1.0334.0437-.3053.1281-.604.0677-.9146-.0057-.0294.0167-.0614.0228-.092.0516-.2734.0959-.548.1554-.8187.0629-.288.1082-.588.3322-.8133.0219-.0227.0578-.092.0651-.1414.0063-.0506-.1421-.1293-.1323-.1893.0088-.06.1896-.1133.2271-.164.037-.0507.0183-.2053.0557-.288.1276-.2813.2438-.5733.4126-.828.0853-.1293.1432-.2547.1593-.3947.0099-.08-.047-.212-.0136-.256.4792-.5746.7663-1.0253 1.1568-1.7306.0016.0146.0907-.1574.0995-.2747.01-.116.248-.2387.427-.2613.0183-.004.1808-.2334.0584-.1947-.1234.0387-.3297.02-.3073-.0573.0224-.076.0521-.636.1907-.6734.1396-.0373.3016-.0786.262-.1546-.0391-.076-.1563.0693-.1428-.1534.0136-.2186.3177-.2386.3496-.292.0317-.0546.1437-.1893.0957-.196-.0344-.0053-.1177-.0933-.2635-.044-.0458.016-.1666.2067-.137-.0226.0302-.2267.26-.6374.5229-.8387.1688-.428.8912-1.3293 1.0417-1.2907.1506.04.3083.072.2531.024-.0563-.052-.1224-.3106.0261-.384.1484-.072.4848-.396.7192-.6786.4402-.5334.8094-1.1267.8172-1.004.012.1973.0932.2626.1506.424.0401-.0947.0806-.1454.0797-.1974-.0005-.248.1088-.4386.311-.5666.2051-.1294.2509-.1934.354-.4774.1026-.284.5829-.3133.6615-.3213.0787-.008.4167-.8147.3902-.8947-.0278-.08.2276-.2533.3353-.3546.139-.1307.288-.2507.4317-.376.1115-.096.2366-.18.3308-.292.2058-.244.3922-.504.5938-.7534.175-.2146.3598-.42.5432-.628.027-.0333.0505-.0786.0906-.0773.0396.0027.1574 0 .2178.016.0614.0147-.0527-.2467.0312-.2653.0849-.0174.3292-.1267.3401-.1867.0115-.06.138-.4653.423-.4773.0076-.08.0134-.1414.0186-.1987.3005-.2573.585-.5173.8865-.756.173-.1387.3052-.296.3902-.496.0072-.02.0281-.032.0536-.0587.0688-.0213.1478-.048.2265-.072.0563-.2546.2027-.4493.3927-.612.162-.1373.3376-.2586.499-.3986.1771-.1534.34-.324.5172-.4774.2004-.176.5135-.4306.4791-.4026-.0343.028.06-.12.1136-.1374.0547-.016.2692-.0826.3355-.1066.065-.024.2822-.5654.3374-.5867.0547-.0227.3162-.1627.4604-.288.5104-.4413.8984-1.152 1.0244-1.168.1631-.0187.7262-.556 1.0439-.8533.0848-.08.163-.1667.2452-.2507.337-.3373.8333-.496 1.0667-.952.022-.0427.0876-.0613.1272-.096.1337-.1187.2754-.232.3962-.3627.211-.2293.4047-.4733.7432-.5226.082-.012.1626-.0587.2334-.1054.2677-.1773.5704-.2293.8786-.2826.3574-.0614.7095-.1467 1.059-.2374.5077-.1333 1.0098-.2866 1.5177-.4173.1077-.028.2348-.0213.3447.0027.3453.0813.4286.0466.6381-.256.0624-.092.1619-.2054.2567-.2174.2714-.0333.5666-.3186.6458-.3293.0787-.0107.538-.0747.7932-.108.1579-.02.2891-.0867.3746-.2213.1593-.2534.3921-.3867.6781-.448.0823-.0174.1604-.0547.2333-.0787.074-.024.0907-.2707.1631-.3333.0724-.0667.4927-.2187.7484-.284.361-.096.7307-.1534 1.0968-.2214.073-.0133.1505-.0093.2256-.0053.4697.0187.9405.044 1.411.06.2358.0093.4718.0067.7082.008.1787.0013.3907-.0453.5808 0 .1901.0467.3708.1947.4807.1787.1098-.0147.0204.0146-.0902.1666-.1104.1534.3631.1107.3778.0307.0613-.3547-.1767-.3547-.0907-.3973.0859-.044.6635-.208 1.015-.064.1011.0413.2293.036.3418.0253.2-.0187.4-.0213.5948 0h.028v.0027c.1657.0213.3277.06.4833.1226.2115.0867.397.108.6183.0854.2407-.0267.4912-.0107.7308.024.2301.0346.4515.1266.6796.18.2912.068.5933.0946.8437.288.0554.0426.1407.048.2126.064.3562.0733.7745.1093.987.2026.2124.0947.6286.464.9624.5827.2267.08.773-.0387.749.0547-.025.0946.0786.2146.1464.296.1646.1986.4177.304.576.376.2224.1013.4406.048.3292-.5094-.0578-.2013.3245.416.3396.5347.0145.12-.1088.3533-.0927.4693.0156.1147.7088.3907 1.1792.7027.0093-.02.2656.2067.2744.188.1308.0347.2677.052.388.1093.0204.008.049.0387.0819.0747.014.0293.027.0493.0405.08.085.1813.4641.8267.5761 1.0227.1114.1973.8796.6373.9078.8933.028.2587.5464.8013.5464.8013s-.0162.736.0462.928c.047.132.0943.2827.0902.3547-.0072.1347.0937.3707.1609.5507.0485.128.1161.2533.186.3733.202.352.2036.9333.111 1.0787-.0923.1466-.434.324-.6418.4746-.276.2014-.353.4654-.2833.792.0063.0294.0125.0614.0182.0934.0479.152.0386.1293.1068.1866.0678.0587.1016.12.0776.1654-.0245.0426-.0469.056-.0885.0333-.0235-.012-.0287-.0253-.0428-.032.0125.0907.0215.1667.0256.2027.0099.08-.0287.2693-.2016.3866.0089.052-.052.0307-.0672.0387-.0187.0093-.0708.0253-.0672.0987.0043.0706-.0583.0373-.0968.048-.039.0093-.097 0-.1208.048-.025.048.0239.0386 0 .0386-.025 0-.0781-.024-.1167-.092-.0376-.0653-.1068-.0826-.172-.0826-.1718.0027-.3317.0173-.4156.1026-.179.1787-.2916.4054-.4281.62-.1599.252-.3213.3334-.6172.292-.0848-.012-.1692-.024-.2547-.0306-.0416-.0027-.0416-.0027-.1614.0213-.1416.0293-.2422.0973-.3406.1613-.0376.0254-.0157.0654.0667.0654.0828 0 .0052.0253 0 .068-.0052.044 0 0 0 .0213 0 .024-.0828.0267-.1407.0173-.0584-.0093-.1874-.0427-.2864-.028-.2308.0133-.6162.096-.6838.1547-.0678.0573-.1647.392-.2548.4707-.089.076-.8026.0706-1.1938.148-.3853.076-.7604.2026-1.1364.3346-.2093-.0133-.4078-.0787-.5312-.324-.287.4214-.6844.244-1.0376.2187-.2738-.02-.5281-.0147-.7864.0827-.0937.0346-.2172.0426-.3109.012-.3136-.0987-1.0093-.2054-.936-.3387.074-.132.0047-.2333-.025-.3307-.0297-.096-.113-.2306-.1655-.288-.0527-.0573-.3527.0013-.474.104-.1214.104-.0292.36-.0402.5054-.365-.0147-.692-.0454-1.0186-.0387-.3642.008-.7344.4573-.7.5933.0222.0947.1828.1814.3437.2734h.0005c.1354.0786.1338.032.226.0746.0922.044.1016.0694.2474.1174s.3302.0093.388-.02c.0578-.028-.029.1613-.1266.2-.0968.0386-.2124.052-.3489 0-.135-.0534-.3516-.0587-.4525-.0387-.0844.02-.1844.0307-.298.0413-.302.0253-.4214-.5107-.5755-.8013-.4037-.116-.8396.1893-.9328.6373-.0933.4493-.9407.608-1.073.712-.1322.1053-.0927-.272-.1098-.392-.0267-.1667-.1048-.2853-.2625-.3333-.3584-.1107-.715-.2307-1.1006-.1014-.1286.0427-.225.0974-.3046.212-.0896.128-.2095.236-.3183.3507-.1021.1067-.2083.2093-.3041.3267-.2115.1213-.4323.2213-.6907.2066-.0713-.004-.1703.0053-.214.0494-.2839.2893-.6975.344-1.0183.5893-.3958.304-.8198.58-1.2057.9013-.5265.44-1.0475.8854-1.5593 1.34a8.232 8.232 0 00-.7219.7267c-.2824.3213-.5485.6573-.8043 1-.1645.22-.33.4227-.5842.456-.1278.1693-.2308.3053-.3444.456-.1223.3693-.3047.7093-.753.8253-.0157.0334-.047.0707-.0485.1094-.0104.248-.1365.44-.3281.564-.238.1533-.3683.3786-.5099.6053-.0661.104-.1636.188-.2475.284-.0729.056-.252-.1573-.3453-.1093-.3823.2013-.6599.5333-.9364.856-.2641.308-.485.6506-.7339.9733-.1308.168-.2932.312-.4218.4827-.073.096-.1459.2213-.151.3373-.01.1853-.073.3253-.1917.46-.0943.108-.1667.2373-.2735.3493-.0718.0614-.0308-.1426-.0484-.2133-.0584-.2173-.1157-.432.04-.6493.0746-.0894-.138-.3414-.3473-.408-.0724-.0107-.112.0573-.1547.1013-.4562.468-.9172.9333-1.363 1.4093-.3803.408-.7542.8214-1.1094 1.2507-.2729.328-.4313.712-.4276 1.1507.002.2773.0006.5546.0006.824-.085-.0587-.085-.0587-.1819-.44-.0473-.1374-.1536-.028-.2265-.0427-.063-.0307-.0703.0813-.0735.1093-.0312.2867-.163.52-.3233.7574-.1106.1613-.171.372-.2043.5706-.137.824-.2568 1.6507-.3817 2.4774-.0068.0426-.0151.088-.0052.128.1073.4626-.0402.9173-.0355 1.376.0063.652.0385 1.3053.0604 1.9573.0037.1067.0152.2133.023.32.028.3733.0594.748.0822 1.1213.0063.0987-.011.2-.017.3174-.0277.18-.274.024-.3667.032-.209.0306-.1683.308-.1256.4773.0437.176.1098.348.1718.5187.0558.1533.1.304-.0161.496-.113.1546-.2057-.0894-.3068-.136-.2416-.1134-.4801-.232-.7233-.3414-.2975-.1346-.5423-.044-.7496.188-.0619.072-.1255.1427-.1411.1614-.1656.244-.0396.7906-.039 1.1506 0 .124.0442.2547.0947.3707.1104.2547.2411.5027.3578.7547.0438.0933.2261.2653.1214.328-.1396.0893-.2537.1893-.3854.24-.2694.104-.426.2986-.4755.564-.059.3146-.1152.636-.1095.9533.0084.4387.0746.8747.121 1.3107.0369.3413.0828.68.1202 1.0213.0391.3547.0578.4387.2964.4533.0624.004.2171-.0866.2354 0 .0589.26.1874.5067.1808.7907-.011.516.0172 1.028.1692 1.5267.0245.08.0213.1693.0229.2546.0027.1614.0088.3227-.0047.4827-.0579.672.1276 1.2947.3697 1.9093.1724.436.3224.8814.499 1.316.1365.336.3256.6547.4433.996.1213.3534.3515.6347.5307.948.1078.1894.2953.332.4516.492.112.1134.2306.2214.3478.3294.0626.0586.121.1253.1943.1666.3797.2094.6256.5454.8521.9014.0912.1413.1959.2746.2974.412.0896.12.2057.2266.2693.3586.1145.24.3016.412.4855.592.289.284.5713.5747.8572.8614.0308.0306.0729.056.0874.0933.1735.4373.6256.5667.9418.844.1125.0973.2921.12.4521.1813.1801.4627.5927.736.9285 1.0774.135.136.2891.252.4308.384.235.2173.4359.4706.7302.624.1.052.1714.16.261.236.1228.1026.2463.2066.3771.2986.2541.176.5156.34.7713.5147.4687.3173.9386.6347 1.4031.9573.5021.3494.9928.7147 1.5021 1.052.275.1827.5807.3214.8719.48.1307.0707.2599.144.3943.2187.0724.048-.086.2587.0234.3227.0844.06.1698.144.2735.192.5348.248 1.0676.5026 1.614.7226.3161.1267.6573.1894.986.2854.1337.0373.2723.068.3952.1293.4881.2453.9625.52 1.4573.7493.4156.192.849.3507 1.2844.4947.1531.0493.4588-.1093.5312.008.1016.216.3256.2733.5522.352.4634.1573.9396.2933 1.3333.612.0885.0707.2875.1067.3145.1613.0156.04.0448.08.0428.1187-.013.3493.1886.532.4662.7027.3921.2426.8192.2973 1.2566.3346.2126.0187.4267.0334.6396.0494.0434.0027.088.0146.1276.004.4839-.1254.9579.024 1.4366.044.1462.0067.3014-.012.4396-.0587.0817-.028.2634-.1587.2118-.2107-.2213-.232-.6202-.1346-.7072-.2293-.1374-.1307-.2672-.252-.4161-.3947-.0396-.056-.224.116-.2625.0427a19.8248 19.8248 0 00-.1142-.276c-.0389-.0987-.1525.2707-.2088.3067-.1593.1093-.2896.2-.4582.3173-.1496.0507-.3339-.0027-.5215-.0573-.1697-.0507-.3457-.084-.5619-.072-.5438-.0467-.287-.252-.2162-.3507.1266-.1773.2625-.1987.4214-.1587.5438.1347.9219-.0933 1.0547-.6346.014-.06.0239-.12.0839-.188.077-.0814.0281.4053.102.4213.2713-.0147.137-.352.2401-.3467.0724.0053.2047-.076.2333.0214.0495.136.0886.2453.1282.356.0254.0626.0437-.004.0656-.0053.0474-.0053.0063-.228.0724-.2347.239-.032.4598.0627.6808.128.6161.18 1.2281.376 1.8421.5653.235.0734.4677.156.7052.22.1317.036.4917-.044.4041-.1146-.2385-.24-.479-.48-.7186-.7214-.047-.044.0057-.084.0604-.0786.064.016.1077.0413.164.0706.1813.092.3578.1934.536.2907.6306.344 1.3312.384 2.0234.456.8667.092 1.7323-.0547 2.5995-.004.3848.0227.7735.0173 1.1583-.0053.3297-.0213.6546-.0867.9822-.132.0943-.0133.1948-.0467.2834-.028.2308.048.4448.0107.6641-.056.225-.0693.4604-.108.685-.1773a3.0132 3.0132 0 00.502-.212c.1395-.0747.238-.1894.1307-.4147.2015.068.3282.1227.4844.176.0422.0053-.0073-.0467.0266-.056.215-.0427.4296-.0827.6442-.1307.2192-.048.4391-.096.6552-.1586.1667-.0467.273-.164.3151-.3587.011-.0653-.0927-.2213-.062-.2573.0219-.0267.0147-.056.063-.0747.1151-.0453.2282-.0987.3413-.148.1-.0467.2014-.0907.303-.1333.1178-.0494.2454-.08.3563-.1414.599-.332 1.1953-.6653 1.7875-1.008.186-.1066.3536-.2426.5328-.36.0969-.064.1994-.1186.3052-.18.0776-.0373.1745.1654.2698.168.4536-.0106.8438-.128 1.1943-.4226.2244-.188.5219-.2894.7755-.4467.3182-.1987.6245-.416.937-.624.161-.1067.3156-.2267.487-.312.5568-.276.9702-.7133 1.3156-1.2053.3098-.44.7234-.784 1.0396-1.212.0234-.0334.063-.052.1328-.0427.0473.0013-.0662.0813-.1.1213-.2464.3027-.4907.6054-.7427.9014-.2959.344-.5333.72-.7016 1.1373-.0443.1213.325.24.5907.136.3744-.148.6374-.4253.8676-.7413.2464-.336.4917-.6734.7365-1.012.087-.1214.1697-.2467.2547-.3694.024-.036.0448-.0733.0734-.1053.56-.6133.9074-1.368 1.3536-2.056.1678-.2587.3126-.532.46-.8027.1275-.2333.124-.236.362-.34.0718-.024-.087-.164-.0584-.224.3015-.5013.6844-.9346 1.149-1.3346.076-.0667.239-.092.2344-.1947-.0057-.364.2104-.6733.487-.956.4244-.4347.663-.964.7884-1.556.0547-.26.1323-.5227.2475-.7613.2552-.5254.3796-1.0907.5385-1.6454.0391-.136.0635-.264.1823-.364.061-.0506.0937-.1386.1287-.2146.0885-.1947.1708-.392.2552-.588.0208-.0494.0462-.0974.0572-.1494.0756-.3666.1188-.7413.2276-1.0973.1469-.484.2505-.964.1833-1.472-.0093-.0707.0157-.148.033-.2213.0738-.3227.1535-.644.2254-.968.051-.228.0776-.4574.0912-.6947.029-.488.1276-.972.213-1.4573.0671-.3774.2265-.7374.2103-1.132-.0025-.072.0215-.1494.0454-.22.1094-.3227.2204-.6454.336-.9814.051-.1466.1989-.376.1557-.4506-.1557-.2614-.0839-.5627.002-.8654.0157-.0506.136-.0986.1281-.1693-.0333-.0987-.102-.1013-.091-.1667.0254-.1146.0604-.2306.0724-.3453.0104-.0933.0208-.2027-.0178-.28-.1953-.3907-.1896-.8067-.175-1.2253.0037-.1054.013-.2107.0218-.3467.0183-.1533.4162.364.398.2413-.05-.4253-.0604-.8146.0474-1.216.0932-.3453.0828-.7213.0177-1.0866-.0303-.1667-.0604-.3467-.0317-.5094.0838-.4906-.0756-.932-.2235-1.3786-.0604-.184-.1364-.3627-.174-.552-.0323-.1627-.0156-.336-.0281-.504-.0271-.3894.0548-.7814-.0922-1.168-.3584-.9414-.6702-1.9-1.0426-2.8347-.2828-.708-.5115-1.4293-.6943-2.168-.059-.236-.173-.46-.2557-.692-.148-.4133-.2855-.828-.4376-1.2387-.0963-.2613-.1895-.5266-.3224-.7706-.3072-.564-.625-1.1227-.9619-1.668-.225-.3654-.4912-.7-.6527-1.1027-.0817-.2067-.2109-.4027-.3573-.5693-.3952-.4507-.6979-.9707-1.1265-1.3987-.2744-.2747-.4547-.644-.676-.972-.0298-.0453-.0475-.1-.0828-.1387-.421-.4386-.8438-.8746-1.2652-1.3133-.0515-.0533-.0968-.1147-.1386-.176-.0984-.1467-.2338-.3373-.3109-.432-.077-.0947-.2353-.444-.4697-.58-.0907-.0533-.165-.136-.238-.2147-.299-.32-.8486-.82-.8762-.8386-.028-.0187-.0342-.0547.0142-.06.0478-.0053.0869-.2227.0276-.1734-.0588.0494-.1464-.028-.1412.028.0052.0574.0198.1334-.0172.1014-.0354-.032-.15-.1334-.2296-.2147-.0792-.084-.0818-.0867-.048-.1107.1433-.1093-.2359-.1666-.1354-.1293.1.04.0344.0747-.0099.052-.0442-.0213-.2204-.132-.249-.16-.111-.1093-.2859-.2533-.4047-.344-.1787-.1347-.349-.2813-.5292-.4133-.0541-.04-.2927-.1094-.177-.1.1157.0093.3594.14.2745.0733-.0844-.068-.2755-.1347-.3396-.208-.1391-.1987-.1943-.1573-.3036-.24-.1099-.0827.1442.2987.0666.2627-.0776-.0374-.5156-.2827-.575-.34-.0593-.0574.047-.1854-.0192-.1854-.0677-.0013-.127.0533-.2089-.0333-.0801-.088-.1187-.1214-.2375-.2347-.4718-.4547.538.3293.6219-.1853.0208-.1254.4875.0906.3432-.0707-.1453-.1613-.4176-.3933-.5443-.5187-.04-.0386-.0301.0427-.1233.0294-.2027-.028-.521-.0974-.2553.0213.2906.1293.4698.3507.4996.4.0301.048-.8704-.2093-.9896-.516-.0418-.1053.2937.0853.2233-.0387-.0703-.1253-.8823-.3426-1.0317-.396-.15-.0533-.2635-.1933-.3672-.2106-.1036-.0174-.2203-.1347-.2604-.2454-.0407-.112-.174-.0466-.2798-.0986-.1041-.0507-.1504-.132-.2618-.192h-.0006c-.0781-.0414-.1458-.0987-.2281-.1347-.0693-.028-.1385-.056-.209-.0827-.253-.0906-.4634-.2306-.668-.42-.359-.3333.3233-.2986-.1194-.524a16.071 16.071 0 00-.3464-.172c-.0979-.0466-.2077-.1466-.2457-.1773-.0376-.0293.0957.0067.1786.032.0667.02.1307.0653.0948.0133-.0786-.116-.2256-.0733-.3329-.12-.1072-.0466-.1561-.0893-.2276-.288-.0099-.028-.0224-.1053-.0828-.1786-.0615-.076 1.5433.604 1.4505.5386-.0921-.0626-.9421-.572-1.0077-.5426-.1328.0586-.1281-.5307-.2948-.1867-.0204.044.1307.188.011.0947-.12-.0947-.1803-.008-.3105-.1934-.0724-.1173-.4996-.5453-.2281-.348.2708.196.6557.1947.4973.1-.1577-.096-.5312-.248-.6416-.3026-.1105-.056.0203-.5987-.3854-.5707-.0198.004.0297.0533-.0568.0107-.0932-.0454-.25-.1387-.4162-.1667.1058.1187.3178.1027.4558.2.0822.06.1254.1867.1708.3027.0308.0813.088.1746.0532.1626a13.3045 13.3045 0 00-.2756-.0933c-.0786-.0267-.0463-.228-.1135-.2907-.073-.0693-.511-.1333-.6344-.1986-.1235-.064-.099-.2267-.1516-.2587-.053-.0307-.077-.0387-.1177-.0453-.0495-.0067-.0515-.0067-.1094-.0467-.0573-.0387.0246-.1107.0662-.116.0428-.0053.189.0347.302.0933.1132.0547.0136.2027.1454.188.0567-.0066.1776-.1133.1776-.2186 0-.1054-.121-.0454-.2912-.072-.1686-.024-.2093-.0107-.2661-.0814-.0197-.0253-.1136.0707-.1224-.0706-.0083-.14.2036-.1987.1615-.1507-.0422.0493-.098.1387.0145.0533.113-.0853.123-.4413.3647-.3453.241.0947-.073-.0947-.036-.1333.1218-.1254.638-.032.7156.1666.0297.076-.0504.1054-.1198.1147-.0697.0067.4219.1573.6047.1147.2005-.0494.287-.224.3156-.1934.0537.0587.0928.064.1557.112.0642.048-.112.192.0918.1494.2036-.0427.3405.1253.5353.2253.15.0773.3657.0853.3235.04-.0963-.1-.075-.0853-.1406-.1213-.0657-.0374-.2204 0-.173-.0374.21-.164.4292-.0146.412.048-.0916.3147.1469.076.1406.3267-.1062.292-.627-.0613-1.0281-.2947-.0672-.04-.1984-.0506-.2568-.0813-.0375-.0187-.0057-.0587-.0375-.0693-.0833-.032-.1448-.0374-.1739 0-.0777.104 1.2411.6826 1.3728.7653.1396.0867.2204.0933.3563.0733.0339-.0053-.0088-.0213-.0364-.0573-.027-.036.0312-.1147.0984-.1093.0672.0026 1.126.4813 1.3224.644.0661.056.0219.348-.1875.4506-.2093.1027.6156.376.699.384.0833.0067.1417.1187.1677.188.0265.068.041.148.0353-.0893-.0057-.2373.0787.164.2011.1773.1224.0147.4073.1707.3453.056-.0625-.112-.0953-.6066-.4916-.56-.3964.0467-.6037-.368-.664-.412-.0605-.0426.0338-.088.0588-.1386.0244-.0507.2562.1786.4572.0493.2006-.1307.1708-.0547.138.0693-.053.2054-.1328.0894-.1754.0974-.1344.024.2588.2306.403.1933.1434-.04-.1577-.2293-.0609-.264.0975-.0347.211.0373.21.1187-.001.0826-.0147.1493.0619.248.0756.0986.089.0893.0923.1573.004.068-.0027.0573-.0147.14-.0119.084.0641-.1693.0975-.0347.0177.0747.0245.2667.0292.308.0052.0427-.0595-.0333-.0412.0454.0177.0773.4489.3533.424.2706-.0803-.268-.4662-.0106-.2538-.592.2126-.58.5902.0694.6038-.152.0134-.2213.128.0013.1442.0907.0172.0893-.0604.1813-.0912.2133-.0312.0307.0057.124-.0099.2-.0161.0774-.1521.2947-.1697.2-.0177-.0933-.0095-.0133-.024-.1306-.0156-.116-.1923.3426.0292.3093.2219-.0347.1807.1547.3473.1827.1662.028.2142.0426.197-.0187-.0162-.0613-.0574-.1667.0025-.2747.0885-.1573.7265.5467.6713.2067-.0563-.3387-.5719-.2133-.5776-.524-.0025-.1507.1885.0147.309-.0547.1191-.0707-.2235-.0307-.2047-.232.018-.2013-.0896-.4573-.1975-.336-.1068.1227.047.496-.0557.3347-.1036-.16-.1432-.164-.0854-.308-.0729.0427-.3313-.168-.2386-.1787.0942-.0107.2272.0067.1338-.0373-.0932-.0427-.599-.3733-.7254-.2667-.0323.028-.0391.0414.0073.1267.038.0707-.0391.088-.1282.0253-.0885-.06-.0906-.0173-.0417.044.0495.0627.1037.0747.0765.1707-.0265.0947-.326-.0507-.1618-.488.0358-.0947-.4063-.2787-.634-.104-.075.0587-.0088-.2787.0146-.3.023-.0227.076-.0693.0719-.0907-.0047-.02-.0328-.132-.0188-.1253.0141.0053.0948.0493.072.016-.0215-.0307-.074-.0467-.0819-.088-.0093-.0427.0172-.26.1256-.2173.1078.044.3099.2533.4536.2053.047-.0173.0334.0213.0594.0693.026.0494.1193.1787.1657.1814.0463.0026.1113.1653.103.1026-.0087-.064-.0729-.0973-.013-.112.06-.0146.188-.0733.1828-.028-.0057.0934-.0244.148.0256.272.065.164-.0735.364.2683.2467.342-.1174.352.196.367.06.0157-.136.0376-.1974.0552.0267.0183.224.4777.4373.5647.376.2735-.1854.4317.1373.6353.028.0756-.04-.1484-.0587-.3156-.1574-.2828-.1666-.6015-.424-.49-.3933.178.0467.4067.0347.3807-.0827-.0265-.1173-.7875-.1906-.573-.208.0626-.0053.4036-.0373.287-.0586-.1156-.02-.3728-.26-.3244-.2494.0473.0107.4719.1947.663.2014.1208.004.3047-.0574.3047-.1067 0-.0493.1495.036.1577.144.0084.1107-.0338.1907.0183.2293.0516.04.7344-.1586 1.0454.2627l.1322.2187c.0412.1346.8896.744.913.2253.0053-.0893.5496.3093.4152.3093-.085-.0013-.1646.0173-.1511.1734.0147.16.0557.364.0032.4253-.1781.18.5036.1933.6239.068.066-.0533-.0443-.428-.2344-.4973-.0927-.0334-.1114-.0774-.1072-.132.002-.06.1432-.0694.2005-.04.111.0546 1.5328.7666 1.5328.7666-.6828-.492-1.5188-1.0253-2.2459-1.2586-.2292-.0734-.5776-.1254-.6473-.12-.0699.0053.1405.0573.039.0826-.1005.0254-.2166-.0266-.3723-.204 0 0-.1683-.2026-.17-.196-.1395-.1586-.2832-.308-.4098-.3266-1.1234-.3707-2.2-.8614-3.2812-1.236-.025-.0094.027-.132.0979-.12.0708.012.1145.06.1005.016-.0781-.2374-.3833-.2147-.4276-.2467-.0458-.032.0823.1293.0968.244.0142.1147-.0421.052-.1145.032-.0355-.0107-.0932-.0347-.1541-.0653-.061-.028-.1172-.104-.1902-.176-.0166-.0174-.0328-.0347-.0478-.0494-.1308-.1466-.2314-.1026-.3964-.112-.1646-.0093-.6323-.2346-.8183-.352-.1864-.1186-.2005-.1226-.5167-.2333l-.0036-.0013c-.138-.0507-.2474-.088-.2912-.1134-.1281-.0746-.363-.2026-.3494-.4893.0027-.0573.4245.148.5292.1467.0406 0 .1968.0946.3093.132.1781.06.3193.068.2484.0266-.1135-.064-.4875-.1733-.391-.1786.0967-.004.2447.06.1885-.004-.0568-.0627-.4006-.1814-.4766-.2374-.0765-.0546-.6084-.416-.8537-.3013-.0405.016-.4005-.144-.2265-.0453.174.0986.6724.2533.5297.272-.1427.0186-.9385-.26-1.05-.1974-.0427.024.0683.0187.2187.0547.2406.0573.6125.168.8516.26.0802.032.0942.0493.0833.0693 0 0-.0125.0227-.0296.0454-.0177.024.0301.02.0104.0773-.0215.0573-.2.2453-.2199.016-.7838-.04-1.1978-.3827-1.2432-.4307-.0459-.0493.1547-.0346.0193-.124-.1338-.088-.501-.0493-.375-.136.1265-.0853.6213.2694.6057.22-.1927-.6173-.1807-.0053-.5073-.4573-.039-.0533-.9567-.112-1.2796-.196-.324-.0867-.5688-.1867-.824-.2293-.2396-.04-.3375-.1027-.3724-.1307-.0344-.028-.126-.1187-.0885-.1387.1593-.088.453.036.6745.088.2255.0534.377.036.2807-.06-.1918-.1906-.362-.1333-.5828-.3293-.22-.1973-.1975-.144-.3131-.2413-.1161-.096.3537.0693.4261.0853.0895.028.178.0587.267.08.1694.0507.3512.124.4273.2267l.1833.2533c.1208.1667.4058.2147.5058.26.0004.0013.0009.0013.0009.0013.1095.092.2381.0227.2443-.0146.0079-.044-.1198-.1494-.0782-.1667.0418-.0173.0647-.0507.136-.0293.2162.0653.3563-.0294.5646.032.552.124 1.1844.416 1.6485.2613.1427-.0493-.1824-.1867-.2005-.2733-.034-.224.1358-.1294.1962-.192-.7948-.488-1.0656-.0174-1.613-.0374-.1208-.0053-.3542-.1373-.5124-.2093-.0214-.0107-.0522-.0213-.0943-.036-.1281-.0387-.6375-.0827-.8312-.136-.0037-.0013-.0052-.0013-.009-.0027-.4576-.1653-.9046-.288-1.3452-.392-.6187-.3413-1.2072-.7253-1.884-.9533-.0942-.028.1512-.0347.1377-.056-.3147-.476.0187-.376.0047-.5613-.0147-.1854.099-.072.1807.008.0485.0466.0614.308.0266.2573-.036-.0493-.0666-.0933-.0944-.1213-.0692-.0694-.0536-.032-.0686.016-.0136.044-.0375.0093-.062.076-.0246.064.1109.0733.202.1493.06.0507.1078.0813.1589.116.1636.1533.3677.34.313-.0227-.0542-.3613-.137.0947-.1666.0427-.0292-.0533-.1152-.072-.1303-.1027-.0807-.1426-.0812-.304-.0468-.248.0343.0534.1146.2027.1067.14-.0208-.16-.153-.3946-.0859-.3826.451.0773 1.15 1.1253 1.514.796.1246-.1134.151.168.1308.1973-.0208.032-.1318.0827-.2318.156-.101.0733.8172-.0147.7562-.0667-.0604-.0533-.0676-.0506-.1025-.1066-.15-.24-.2563-.5627-.1235-.528 1.2074.2413 2.3047.4906 3.601 1.0333.214.096.0188.5027.0026.4853-.0161-.0173-.1364-.2906-.1364-.2906-.0975-.1774-.5099-.024-.5421.1453-.02.1107.291.088.4588.1693.5358.2627 1.1582.66 1.2822.0214.0265-.1494.959.4573 1.1432.1186.023-.056-.0063.104.513.2414.0684.0186.1428.0333.2236.028.0405-.0107.0844.1146.1202.2026.0475-.0146.1907.104.209.1774 0 0 .029.216.0572.312.0286.0933.1844.024.112-.0307-.073-.0547-.1146-.1213-.11-.1573.0084-.044-.002-.0707.0214-.096.0203-.02.2385.1453.4041.1933 0 0-.0448-.096-.1817-.116-.0683-.0093-.2593-.164-.1328-.1373.1083.0173.1864-.0267.3479.0213.0647.0493.0647.1027.1354.1387.0516.0253.1255-.124.2203.068l.1375.2346c.037-.056.072-.1533.133-.1173a7.279 7.279 0 01.1842.0787c.2797.1333.5542.276.8297.416.0765.0386.1479.0866.224.1266.1604.088.3197.176.4844.2547.0364.0187.079-.0533.114.032 0 0 .0479.1653.0948.204.0473.036.3683-.1173.9.1373.0573.0294.0859.0507.173.044.0822-.0053.2327.1334.5858.3587 1.3833.8813 4.8885 3.1906 6.9276 4.696-.1739-.32-.365-.4227-.5708-.5107-.2645-.112-.7068-.7053-.8593-.6973-.2574.0187-.6052-.3067-.9672-.6507-.088-.1.1333.056.2453.0173.0635-.0213.0312-.144.0921-.0906.1308.0973.3984.3253.3631.236 0 0-.0667-.2107-.1365-.2907-.0708-.0787-.2058-.088-.2072-.152 0-.08.0036-.14.052-.084.7094.664 1.3942 1.308 2.1324 1.9973.1004.096.1416.2227.3061.2867.348.148.6792.5013 1.0355.824.1505.1347.289.2827.4322.4253.1131.1134.2402.2174.3355.3454.0973.128.214.1866.3672.2306.2015.06.4208.128.5787.2587.3041.252.5817.54.8473.8347.2068.2293.4021.4746.5593.7386.2032.3414.4371.612.8672.6254.1204-.004.0604.0546.0886.084.3198.332.4437.788.738 1.0946.048.0467-.038.204-.0484.2574-.0146.0866.2204.0693.2693.136.2541.3426.6317.5826.8057.992a2.147 2.147 0 00.1974.3666c.0704.1054.147.2227.2494.2867.2058.128.4314.2213.6486.3293.1066.052.2276-.184.2504-.128.1886.3694.3666.7227.5458 1.0747.16.3147.2683.676.4954.9307.2912.3293.4364.7053.5688 1.0986.0978.2894.2093.564.4885.692.0937.0534.0416.3494.2963.3147.0573-.0173.1224-.0933.135-.204.0031-.0253.0092-.2187.0468-.0707.0943.3414.1696.6147.2456.8867.152.4387.412.84.3974 1.2253.208.3467.3653.6067.5293.88.032.0467-.0267.1147-.0307.1774-.012.276-.0466.5546-.02.8293.0147.1453.0547.2827.028.4373-.02.1067-.0146.2627.0494.332.244.2627.304.5854.352.9147.0333.2333.108.4347.236.5173.116.2694.224.456.2773.656.056.2214.1587.3934.3453.5014.0574.0346.0934.2053.1294.2893.0226.0573.1813.0333.2666.1453.16.3627.0347.6267-.1266.8467-.0534.0733-.1827.1347-.164.2067.156.536.288 1.0093.432 1.48.0346.116.1106.22.1586.3146.036.092.2507.0294.3734.0454.104.012.0706.276.088.412.0386.296.0573.5973.1013.8933.0773.5293.1947 1.0533.1733 1.5947-.012.256-.0266.524.0427.764.1027.364.096.7226.0547 1.0826-.024.2054.012.3734.1013.552.0547.108.0827.2387.0933.36.02.2214.0174.4454.024.64.0027.0987.22.1494.2534.236.2093.6094-.1614 1.0387-.3894 1.4494-.056.112.02.3906-.004.5546-.04.2654-.1253.5214-.16.7854-.0426.3253-.0133.6373.2414.8946.0733.0747.1.2067.1213.3174.0187.104-.0053.2146.004.3213.02.2653.0267.5333.2293.7507.0574.06.0894.1813.0747.2653-.072.408-.06.812.0093 1.2173.0107.0707.0227.156-.012.212z" fill="url(#ab)" transform="matrix(1 0 0 -1 23.977 85.8357)"/><path fill="url(#ac)" d="M.1052.164l.0027.0027L.1052.164z" transform="matrix(1 0 0 -1 79.8437 76.2357)"/><path d="M.2833.396C.1115.2773.1557.2053.0432.1253c-.049-.04.2172.0294.2995.0854.2636.1813.8396.6986.725.616C.8973.7067.4531.512.2833.396" fill="url(#ad)" transform="matrix(1 0 0 -1 90.777 78.369)"/><path d="M.1407.1053C.1989.1187.625.22.678.2333.7307.2467.2688.3533.2593.3.235.1573.0817.092.1407.1053" fill="url(#ae)" transform="matrix(1 0 0 -1 83.7104 76.5024)"/><path d="M.2255.1867C.2068.216.036-.0133.0855.008c.0489.0227.1369.068.1718.1147.0359.0466-.013.032-.0318.064" fill="url(#af)" transform="matrix(1 0 0 -1 78.2437 77.0357)"/><path d="M.049.0493c-.0157-.0533.0177 0 .0531.04.0354.0387.1296.052.0734.0654C.1188.168.0817.156.0489.0493" fill="url(#ag)" transform="matrix(1 0 0 -1 83.577 77.3024)"/><path d="M.1099.26C.1224.0373.2156.1093.2703.1187.3188.096.4297.1667.3615.1693c-.0683 0-.1438 0-.2006.0334-.0573.032.2271-.004.2312.0866.0038.092.2511.288.0667.2134-.1843-.072-.251.2546-.279.1986C.151.6467.1942.54.1806.4787.166.4173.104.372.1099.26" fill="url(#ah)" transform="matrix(1 0 0 -1 78.1104 77.8357)"/><path d="M.6167.1947C.6516.208.6323.172.6787.1867c.0448.0173.2901.1173.3421.14C1.0427.336.9407.392.9084.4693.864.5733.8745.6907.814.5307.7088.2547.413.6133.3417.2013.3333.1533.3125.3227.237.2787.186.248.136.216.085.1867.0333.1587.0473.1267.0907.1053.1333.084.5552.1387.5964.1587c.0208.0106-.0147.0226.0203.036" fill="url(#ai)" transform="matrix(1 0 0 -1 85.3104 76.6357)"/><path d="M.0161.0893C.0573.0907.1115.092.1437.0907c.0318-.0014.0402.092.0574.104.0177.0133.2702.1266.2276.1386C.1896.3987-.025.088.016.0893" fill="url(#aj)" transform="matrix(1 0 0 -1 83.977 76.2357)"/><path d="M.1297.0707C.2495.0973.3625.116.438.1173.513.12.4453.1973.3745.2147.3031.2307.0088.0427.1297.0707" fill="url(#ak)" transform="matrix(1 0 0 -1 85.3104 75.3024)"/><path d="M.1292.5947C.0636.4853.0417.3693.0495.212.051.184-.0052-.036.0568.124c.0421.124.0599.24.0959.3467C.189.576.2437.6733.2776.772c.1183.2427-.026.0253-.1484-.1773" fill="url(#al)" transform="matrix(1 0 0 -1 107.4437 63.0357)"/><path d="M.801.82C.6528.7093.503.6013.3548.492.315.4013.2656.3147.2052.28.1136.2267.0505.116.0547.0467.0599-.0213.1084.0373.1953.12c.0875.0827.1214.0827.3011.1707.1796.0866.126.076.2615.188.1358.112.0937.1053.1604.2426C.9484.7853.8844.8027.801.82" fill="url(#am)" transform="matrix(1 0 0 -1 93.4437 76.6357)"/><path d="M1.077.6587c-.063-.1-.2437-.2494-.3729-.24C.5755.428.5213.4853.4448.4813.3678.476.3438.284.2478.1973.1522.112.1277.1933.0272.1787c-.1011-.016.2354-.1294.4656 0C.7235.3067.675.212.774.184.8724.1547.8765.252.9917.2973c.1156.0494-.051.0627.063.108.0958.0374.1532.216.1964.336C1.2943.86 1.1407.76 1.077.6587" fill="url(#an)" transform="matrix(1 0 0 -1 78.5104 79.0357)"/><path fill="#FFF" d="M55.3521 35.5677h15.7656L55.3521 49.145v4.568H78.022v-4.5333H62.2583l15.7636-13.576v-4.568H55.352v4.532m-16.6957 4.4627l-6.4912-8.9947h-5.6042l9.8063 13.604v9.0733h4.5317v-9.0733l9.8532-13.604h-5.6037l-6.4921 8.9947m45.7-8.9987v4.5373h22.6708v-4.5373H84.3563m0 9.0747v13.6093h22.6708v-4.5373H88.892v-4.536h18.135v-4.536H84.3563M4.537 44.6424h8.3698l5.239 9.0733h5.238l-5.238-9.0733h.001c2.5057 0 4.5376-2.0307 4.5376-4.536V35.569c0-2.5066-2.0319-4.5373-4.5376-4.5373H0v4.5373h17.8255c.1776 0 .3213.144.3213.3214v3.8933a.3225.3225 0 01-.3213.3227H0v13.6093h4.537v-9.0733m127.5174-13.604V46.805l-13.5773-15.7666h-4.568V53.709h4.5333V37.945l13.576 15.764h4.5693V31.0384h-4.5333"/></g></svg>